<?xml version="1.0" standalone="no"?>
<!DOCTYPE svg PUBLIC "-//W3C//DTD SVG 20010904//EN"
 "http://www.w3.org/TR/2001/REC-SVG-20010904/DTD/svg10.dtd">
<svg version="1.0" xmlns="http://www.w3.org/2000/svg"
 width="321.000000pt" height="711.000000pt" viewBox="0 0 321.000000 711.000000"
 preserveAspectRatio="xMidYMid meet">

<g transform="translate(0.000000,711.000000) scale(0.100000,-0.100000)"
fill="#000000" stroke="none">
<path d="M0 3555 l0 -3555 1605 0 1605 0 0 3555 0 3555 -1605 0 -1605 0 0
-3555z m3200 3450 l0 -95 -1595 0 -1595 0 0 95 0 95 1595 0 1595 0 0 -95z
m-1650 -200 l0 -95 -770 0 -770 0 0 95 0 95 770 0 770 0 0 -95z m1650 0 l0
-95 -820 0 -820 0 0 95 0 95 820 0 820 0 0 -95z m-1648 -992 l3 -888 2 888 3
887 820 0 820 0 0 -3345 0 -3345 -820 0 -820 0 -2 573 -3 572 -2 -572 -3 -573
-770 0 -770 0 0 3345 0 3345 770 0 770 0 2 -887z"/>
<path d="M640 7005 c0 -43 1 -45 30 -45 24 0 33 6 40 26 14 36 -3 64 -40 64
-29 0 -30 -2 -30 -45z m55 0 c0 -11 -8 -21 -17 -23 -14 -3 -18 3 -18 23 0 20
4 26 18 23 9 -2 17 -12 17 -23z"/>
<path d="M860 7005 c0 -25 5 -45 10 -45 6 0 10 20 10 45 0 25 -4 45 -10 45 -5
0 -10 -20 -10 -45z"/>
<path d="M1123 7005 c0 -27 2 -38 4 -22 2 15 2 37 0 50 -2 12 -4 0 -4 -28z"/>
<path d="M1342 7038 c-14 -14 -16 -47 -3 -66 10 -17 53 -12 59 6 3 9 -3 11
-22 6 -23 -5 -26 -3 -26 21 0 24 3 26 26 21 19 -5 25 -3 22 6 -6 18 -40 22
-56 6z"/>
<path d="M1690 7005 c0 -25 5 -45 10 -45 6 0 10 20 10 45 0 25 -4 45 -10 45
-5 0 -10 -20 -10 -45z"/>
<path d="M1720 7005 c0 -25 5 -45 10 -45 6 0 10 20 10 45 0 25 -4 45 -10 45
-5 0 -10 -20 -10 -45z"/>
<path d="M1861 7005 c-1 -26 2 -45 9 -45 5 0 10 20 10 45 0 25 -4 45 -8 45 -5
0 -9 -20 -11 -45z"/>
<path d="M2081 7003 c0 -39 2 -44 9 -26 10 24 40 22 40 -3 0 -8 4 -14 9 -14 5
0 9 19 8 43 -2 40 -4 42 -34 45 l-33 3 1 -48z m41 15 c-9 -9 -15 -9 -24 0 -9
9 -7 12 12 12 19 0 21 -3 12 -12z"/>
<path d="M1077 7033 c-7 -11 4 -73 13 -73 8 0 7 66 -2 75 -3 4 -8 3 -11 -2z"/>
<path d="M1822 7004 c4 -50 25 -57 24 -8 -1 21 -8 40 -15 42 -9 3 -11 -6 -9
-34z"/>
<path d="M2512 7004 c4 -49 23 -55 23 -7 0 21 -6 38 -13 41 -10 3 -12 -6 -10
-34z"/>
<path d="M734 7016 c-10 -26 1 -51 24 -54 12 -2 22 2 22 8 0 7 -7 10 -15 6 -8
-3 -15 -1 -15 4 0 16 40 11 46 -5 7 -17 40 -20 49 -4 4 6 0 9 -11 7 -11 -2
-20 4 -22 15 -3 15 0 18 17 12 13 -4 21 -2 21 5 0 19 -30 23 -49 6 -16 -15
-19 -15 -24 -1 -8 19 -36 20 -43 1z"/>
<path d="M900 7021 c0 -6 8 -11 18 -12 12 0 11 -3 -6 -10 -30 -12 -23 -33 12
-37 26 -3 27 -1 24 30 -2 25 -8 34 -25 36 -13 2 -23 -1 -23 -7z m30 -35 c0 -3
-4 -8 -10 -11 -5 -3 -10 -1 -10 4 0 6 5 11 10 11 6 0 10 -2 10 -4z"/>
<path d="M960 6994 c0 -19 5 -34 10 -34 6 0 10 9 10 19 0 11 5 23 10 26 16 10
11 21 -10 22 -16 1 -20 -4 -20 -33z"/>
<path d="M1016 7021 c-4 -5 2 -12 11 -14 17 -4 17 -5 1 -6 -11 -1 -18 -9 -18
-21 0 -15 7 -20 26 -20 23 0 25 3 22 32 -3 32 -29 50 -42 29z"/>
<path d="M1154 7016 c-11 -29 0 -51 26 -51 21 0 25 5 25 30 0 24 -5 31 -23 33
-13 2 -24 -3 -28 -12z m36 -21 c0 -8 -4 -15 -9 -15 -13 0 -22 16 -14 24 11 11
23 6 23 -9z"/>
<path d="M1220 6994 c0 -19 5 -34 10 -34 6 0 10 11 10 25 0 14 5 25 10 25 6 0
10 -11 10 -25 0 -14 5 -25 11 -25 6 0 9 14 7 32 -3 28 -7 33 -30 35 -26 2 -28
-1 -28 -33z"/>
<path d="M1420 7021 c0 -6 8 -11 18 -12 12 0 11 -3 -6 -10 -30 -12 -23 -33 12
-37 26 -3 27 -1 24 30 -2 25 -8 34 -25 36 -13 2 -23 -1 -23 -7z m30 -35 c0 -3
-4 -8 -10 -11 -5 -3 -10 -1 -10 4 0 6 5 11 10 11 6 0 10 -2 10 -4z"/>
<path d="M1480 6994 c0 -19 5 -34 10 -34 6 0 10 11 10 25 0 14 5 25 10 25 6 0
10 -11 10 -25 0 -14 5 -25 11 -25 6 0 9 14 7 32 -3 28 -7 33 -30 35 -26 2 -28
-1 -28 -33z"/>
<path d="M1561 7016 c-7 -8 -10 -24 -6 -36 7 -21 39 -27 50 -9 4 6 0 9 -11 7
-11 -2 -20 4 -22 15 -3 15 0 18 18 12 16 -5 21 -3 18 6 -7 20 -33 22 -47 5z"/>
<path d="M1624 7016 c-15 -39 23 -74 50 -46 8 10 6 12 -11 7 -13 -3 -23 -1
-23 4 0 5 9 9 20 9 23 0 26 10 8 28 -16 16 -37 15 -44 -2z"/>
<path d="M1760 7021 c0 -6 8 -11 18 -12 12 0 11 -3 -6 -10 -30 -12 -23 -33 12
-37 26 -3 27 -1 24 30 -2 25 -8 34 -25 36 -13 2 -23 -1 -23 -7z m30 -35 c0 -3
-4 -8 -10 -11 -5 -3 -10 -1 -10 4 0 6 5 11 10 11 6 0 10 -2 10 -4z"/>
<path d="M1901 7016 c-17 -20 -4 -56 18 -56 28 0 47 28 34 48 -14 23 -37 26
-52 8z m37 -23 c-4 -22 -22 -20 -26 1 -2 10 3 16 13 16 10 0 15 -7 13 -17z"/>
<path d="M1970 6996 c0 -20 5 -36 10 -36 6 0 10 11 10 25 0 14 5 25 10 25 6 0
10 -11 10 -25 0 -14 5 -25 11 -25 6 0 9 14 7 33 -2 27 -8 33 -30 35 -26 3 -28
1 -28 -32z"/>
<path d="M2164 7016 c-15 -39 23 -74 50 -46 8 10 6 12 -11 7 -13 -3 -23 -1
-23 4 0 5 9 9 20 9 23 0 26 10 8 28 -16 16 -37 15 -44 -2z"/>
<path d="M2237 7023 c-15 -15 -7 -55 13 -60 11 -3 20 -9 20 -14 0 -5 5 -9 10
-9 6 0 10 20 10 45 0 40 -2 45 -23 45 -13 0 -27 -3 -30 -7z m33 -27 c0 -8 -4
-17 -9 -20 -10 -7 -23 19 -14 28 11 11 23 6 23 -8z"/>
<path d="M2302 6998 c2 -28 8 -34 31 -36 25 -3 27 -1 27 32 0 20 -4 36 -10 36
-5 0 -10 -11 -10 -25 0 -14 -4 -25 -10 -25 -5 0 -10 11 -10 25 0 14 -5 25 -11
25 -6 0 -9 -14 -7 -32z"/>
<path d="M2381 7016 c-27 -33 14 -77 43 -45 8 9 7 11 -6 6 -10 -3 -20 -2 -23
3 -4 6 3 10 15 10 15 0 20 5 18 17 -4 23 -31 28 -47 9z"/>
<path d="M2444 7019 c-4 -7 4 -20 17 -31 l24 -19 -25 6 c-19 6 -22 5 -14 -5
14 -14 46 -10 52 8 2 6 -7 16 -20 21 -18 8 -19 10 -5 10 10 1 15 6 12 11 -8
13 -32 13 -41 -1z"/>
<path d="M243 6836 c10 -8 17 -26 17 -45 0 -17 5 -31 10 -31 6 0 10 16 10 35
0 19 5 35 10 35 6 0 10 5 10 10 0 6 -17 10 -37 10 -34 -1 -36 -2 -20 -14z"/>
<path d="M460 6841 c0 -5 -9 -11 -21 -14 -16 -4 -20 -12 -17 -34 2 -22 9 -29
31 -31 26 -3 27 -2 27 42 0 25 -4 46 -10 46 -5 0 -10 -4 -10 -9z m0 -46 c0 -8
-4 -15 -9 -15 -13 0 -22 16 -14 24 11 11 23 6 23 -9z"/>
<path d="M780 6805 c0 -46 0 -46 33 -43 30 3 32 5 32 43 0 38 -2 40 -32 43
-33 3 -33 3 -33 -43z m53 13 c6 -19 -3 -38 -19 -38 -8 0 -14 10 -14 25 0 26
25 35 33 13z"/>
<path d="M707 6833 c-7 -11 4 -73 13 -73 8 0 7 66 -2 75 -3 4 -8 3 -11 -2z"/>
<path d="M1122 6804 c4 -49 23 -55 23 -7 0 21 -6 38 -13 41 -10 3 -12 -6 -10
-34z"/>
<path d="M305 6822 c-9 -10 -5 -62 5 -62 6 0 10 9 10 19 0 11 5 23 10 26 6 3
10 10 10 14 0 8 -27 11 -35 3z"/>
<path d="M355 6820 c-3 -5 2 -10 12 -10 17 -1 17 -1 1 -11 -29 -16 -22 -39 12
-39 25 0 30 4 30 23 0 37 -39 63 -55 37z m35 -34 c0 -3 -4 -8 -10 -11 -5 -3
-10 -1 -10 4 0 6 5 11 10 11 6 0 10 -2 10 -4z"/>
<path d="M494 6816 c-15 -39 23 -74 50 -46 8 10 6 12 -11 7 -13 -3 -23 -1 -23
4 0 5 9 9 20 9 23 0 26 10 8 28 -16 16 -37 15 -44 -2z"/>
<path d="M560 6795 c0 -19 5 -35 10 -35 6 0 10 11 10 25 0 14 5 25 10 25 6 0
10 5 10 10 0 6 -9 10 -20 10 -16 0 -20 -7 -20 -35z"/>
<path d="M646 6821 c-4 -5 2 -12 11 -14 17 -4 17 -5 1 -6 -11 -1 -18 -9 -18
-21 0 -15 7 -20 26 -20 23 0 25 3 22 32 -3 32 -29 50 -42 29z"/>
<path d="M871 6816 c-27 -33 14 -77 43 -45 8 9 7 11 -6 6 -10 -3 -20 -2 -23 3
-4 6 3 10 15 10 15 0 20 5 18 17 -4 23 -31 28 -47 9z"/>
<path d="M930 6784 c0 -24 5 -44 10 -44 6 0 10 4 10 9 0 5 9 11 21 14 16 4 20
12 17 34 -2 22 -8 28 -30 30 -27 2 -28 0 -28 -43z m42 11 c0 -5 -5 -11 -11
-13 -6 -2 -11 4 -11 13 0 9 5 15 11 13 6 -2 11 -8 11 -13z"/>
<path d="M1010 6821 c0 -6 8 -11 18 -12 12 0 11 -3 -6 -10 -30 -12 -23 -33 12
-37 26 -3 27 -1 24 30 -2 25 -8 34 -25 36 -13 2 -23 -1 -23 -7z m30 -35 c0 -3
-4 -8 -10 -11 -5 -3 -10 -1 -10 4 0 6 5 11 10 11 6 0 10 -2 10 -4z"/>
<path d="M1070 6794 c0 -19 5 -34 10 -34 6 0 10 9 10 19 0 11 5 23 10 26 16
10 11 21 -10 22 -16 1 -20 -4 -20 -33z"/>
<path d="M1162 6798 c2 -28 8 -34 31 -36 25 -3 27 -1 27 32 0 20 -4 36 -10 36
-5 0 -10 -11 -10 -25 0 -14 -4 -25 -10 -25 -5 0 -10 11 -10 25 0 14 -5 25 -11
25 -6 0 -9 -14 -7 -32z"/>
<path d="M1230 6794 c0 -19 5 -34 10 -34 6 0 10 9 10 19 0 11 5 23 10 26 16
10 11 21 -10 22 -16 1 -20 -4 -20 -33z"/>
<path d="M1284 6816 c-10 -26 1 -51 24 -54 12 -2 22 2 22 8 0 7 -7 10 -15 6
-8 -3 -15 -1 -15 4 0 6 9 10 20 10 18 0 19 3 10 20 -12 23 -38 26 -46 6z"/>
<path d="M1862 6838 c-30 -30 -4 -82 40 -76 20 3 23 9 23 43 0 35 -3 40 -25
43 -14 2 -31 -3 -38 -10z m48 -34 c0 -33 -33 -30 -38 4 -3 17 2 22 17 22 16 0
21 -6 21 -26z"/>
<path d="M1947 6837 c-3 -8 -2 -28 1 -46 l7 -33 11 46 c8 35 7 46 -2 46 -6 0
-14 -6 -17 -13z"/>
<path d="M1987 6838 c-6 -18 4 -78 13 -78 4 0 10 20 12 45 2 29 -1 45 -8 45
-7 0 -14 -6 -17 -12z"/>
<path d="M2033 6805 c0 -27 2 -38 4 -22 2 15 2 37 0 50 -2 12 -4 0 -4 -28z"/>
<path d="M2370 6805 c0 -40 2 -45 23 -45 29 0 47 18 47 45 0 27 -18 45 -47 45
-21 0 -23 -5 -23 -45z m48 3 c-5 -34 -38 -37 -38 -4 0 20 5 26 21 26 15 0 20
-5 17 -22z"/>
<path d="M2292 6804 c4 -50 25 -57 24 -8 -1 21 -8 40 -15 42 -9 3 -11 -6 -9
-34z"/>
<path d="M2688 6832 c-25 -3 -28 -8 -28 -38 0 -19 5 -34 10 -34 6 0 10 11 10
25 0 16 6 25 15 25 9 0 15 -9 15 -25 0 -14 4 -25 8 -25 9 0 10 66 2 72 -3 2
-17 2 -32 0z"/>
<path d="M2064 6816 c-10 -26 1 -51 24 -54 12 -2 22 2 22 8 0 7 -6 10 -14 7
-8 -3 -17 1 -20 8 -6 17 9 29 25 19 7 -4 10 -1 7 7 -7 20 -37 23 -44 5z"/>
<path d="M2131 6816 c-27 -33 14 -77 43 -45 8 9 7 11 -6 6 -10 -3 -20 -2 -23
3 -4 6 3 10 15 10 15 0 20 5 18 17 -4 23 -31 28 -47 9z"/>
<path d="M2230 6821 c0 -6 8 -11 18 -12 12 0 11 -3 -6 -10 -30 -12 -23 -33 12
-37 26 -3 27 -1 24 30 -2 25 -8 34 -25 36 -13 2 -23 -1 -23 -7z m30 -35 c0 -3
-4 -8 -10 -11 -5 -3 -10 -1 -10 4 0 6 5 11 10 11 6 0 10 -2 10 -4z"/>
<path d="M2454 6816 c-15 -39 23 -74 50 -46 8 10 6 12 -11 7 -13 -3 -23 -1
-23 4 0 5 9 9 20 9 23 0 26 10 8 28 -16 16 -37 15 -44 -2z"/>
<path d="M2520 6786 c0 -25 5 -46 10 -46 6 0 10 4 10 9 0 5 9 11 21 14 16 4
20 12 17 34 -2 22 -9 29 -30 31 -27 3 -28 2 -28 -42z m40 9 c0 -8 -4 -15 -10
-15 -5 0 -10 7 -10 15 0 8 5 15 10 15 6 0 10 -7 10 -15z"/>
<path d="M2595 6820 c-3 -5 2 -10 12 -10 17 -1 17 -1 1 -11 -29 -16 -22 -39
12 -39 25 0 30 4 30 23 0 37 -39 63 -55 37z m35 -34 c0 -3 -4 -8 -10 -11 -5
-3 -10 -1 -10 4 0 6 5 11 10 11 6 0 10 -2 10 -4z"/>
<path d="M2747 6822 c-5 -7 -6 -24 -3 -38 5 -17 13 -24 31 -24 22 0 25 4 24
38 -1 31 -2 33 -8 13 -9 -35 -29 -37 -33 -4 -2 19 -6 24 -11 15z"/>
<path d="M2820 6795 c0 -19 5 -35 10 -35 6 0 10 11 10 25 0 14 5 25 10 25 6 0
10 5 10 10 0 6 -9 10 -20 10 -16 0 -20 -7 -20 -35z"/>
<path d="M2871 6816 c-27 -33 14 -77 43 -45 8 9 7 11 -6 6 -10 -3 -20 -2 -23
3 -4 6 3 10 15 10 15 0 20 5 18 17 -4 23 -31 28 -47 9z"/>
<path d="M261 6556 c-12 -15 -2 -27 33 -40 15 -5 17 -9 7 -19 -9 -9 -16 -9
-32 2 -18 10 -20 10 -17 -1 3 -7 18 -13 34 -13 39 0 46 31 10 45 -31 11 -35
35 -6 27 11 -3 18 -1 14 4 -8 13 -30 11 -43 -5z"/>
<path d="M1092 6525 c0 -39 2 -43 7 -21 9 42 29 44 34 4 l5 -33 -2 35 c-1 24
-6 35 -16 35 -8 0 -18 7 -22 15 -4 8 -6 -7 -6 -35z"/>
<path d="M330 6540 c0 -5 5 -10 10 -10 6 0 10 5 10 10 0 6 -4 10 -10 10 -5 0
-10 -4 -10 -10z"/>
<path d="M375 6541 c-3 -7 0 -8 9 -5 9 3 16 1 16 -5 0 -6 -7 -11 -15 -11 -8 0
-15 -4 -15 -10 0 -5 0 -13 0 -17 0 -5 10 -8 23 -9 21 -1 23 2 18 29 -7 32 -25
46 -36 28z m25 -41 c0 -5 -7 -10 -16 -10 -8 0 -12 5 -9 10 3 6 10 10 16 10 5
0 9 -4 9 -10z"/>
<path d="M443 6543 c-7 -2 -12 -19 -12 -36 2 -28 2 -29 6 -7 3 14 10 31 15 38
11 13 10 13 -9 5z"/>
<path d="M470 6540 c0 -5 5 -10 10 -10 6 0 10 5 10 10 0 6 -4 10 -10 10 -5 0
-10 -4 -10 -10z"/>
<path d="M544 6539 c-4 -7 4 -20 17 -31 l24 -20 -22 5 c-13 3 -23 1 -23 -5 0
-14 43 -5 48 10 2 7 -5 16 -17 19 -12 3 -21 10 -21 15 0 6 7 8 15 4 8 -3 15
-1 15 4 0 14 -27 12 -36 -1z"/>
<path d="M607 6544 c-4 -4 -7 -18 -7 -31 0 -26 26 -41 42 -25 8 8 5 9 -11 5
-12 -3 -21 -1 -21 6 0 6 9 11 21 11 14 0 19 5 17 17 -3 19 -29 29 -41 17z m33
-14 c0 -5 -7 -10 -16 -10 -8 0 -12 5 -9 10 3 6 10 10 16 10 5 0 9 -4 9 -10z"/>
<path d="M675 6540 c-3 -6 1 -7 9 -4 20 8 33 -23 17 -39 -10 -9 -16 -7 -28 8
-14 18 -15 18 -9 2 3 -10 6 -21 6 -23 0 -2 9 -4 19 -4 11 0 22 -6 24 -12 3 -7
6 6 6 28 1 30 -4 44 -15 48 -21 8 -22 8 -29 -4z"/>
<path d="M770 6519 c0 -36 -21 -35 -32 2 -6 22 -7 21 -5 -6 2 -23 7 -31 25
-33 19 -3 22 1 22 32 0 20 -2 36 -5 36 -3 0 -5 -14 -5 -31z"/>
<path d="M807 6544 c-4 -4 -7 -18 -7 -31 0 -26 26 -41 42 -25 8 8 5 9 -11 5
-12 -3 -21 -1 -21 6 0 6 9 11 21 11 14 0 19 5 17 17 -3 19 -29 29 -41 17z m33
-14 c0 -5 -7 -10 -16 -10 -8 0 -12 5 -9 10 3 6 10 10 16 10 5 0 9 -4 9 -10z"/>
<path d="M877 6543 c-4 -3 -7 -11 -7 -17 0 -6 4 -5 9 3 13 20 31 4 32 -27 0
-15 3 -21 6 -14 13 34 -18 78 -40 55z"/>
<path d="M937 6543 c-4 -3 -7 -17 -7 -30 0 -26 26 -41 42 -25 8 8 5 9 -11 5
-19 -5 -22 -2 -19 18 2 16 9 24 20 23 10 -1 15 2 12 7 -6 11 -28 12 -37 2z"/>
<path d="M1000 6535 c-17 -21 -8 -50 18 -53 12 -2 22 1 22 7 0 6 -6 8 -14 5
-8 -3 -17 -1 -21 5 -4 7 4 11 20 11 23 0 24 2 15 20 -13 24 -23 25 -40 5z m30
-5 c0 -5 -7 -10 -16 -10 -8 0 -12 5 -9 10 3 6 10 10 16 10 5 0 9 -4 9 -10z"/>
<path d="M1167 6544 c-4 -4 -7 -18 -7 -31 0 -26 26 -41 42 -25 8 8 5 9 -11 5
-12 -3 -21 -1 -21 6 0 6 9 11 21 11 14 0 19 5 17 17 -3 19 -29 29 -41 17z m33
-14 c0 -5 -7 -10 -16 -10 -8 0 -12 5 -9 10 3 6 10 10 16 10 5 0 9 -4 9 -10z"/>
<path d="M1270 6535 c-6 -8 -9 -23 -5 -35 7 -21 39 -27 51 -9 4 7 0 9 -14 5
-11 -4 -23 -2 -27 4 -4 6 4 10 19 10 28 0 33 9 14 28 -16 16 -23 15 -38 -3z
m35 -5 c3 -5 -3 -10 -15 -10 -12 0 -18 5 -15 10 3 6 10 10 15 10 5 0 12 -4 15
-10z"/>
<path d="M1230 6510 c0 -16 2 -30 4 -30 2 0 6 14 8 30 3 17 1 30 -4 30 -4 0
-8 -13 -8 -30z"/>
<path d="M578 6423 c111 -2 293 -2 405 0 111 1 20 2 -203 2 -223 0 -314 -1
-202 -2z"/>
<path d="M1900 6230 l0 -201 -30 16 c-37 19 -51 19 -44 0 5 -12 -14 -15 -123
-18 l-128 -3 129 -2 c109 -2 127 -4 122 -17 -7 -19 7 -19 44 0 l30 16 0 -201
0 -200 405 0 405 0 0 405 0 405 -405 0 -405 0 0 -200z m800 -205 l0 -395 -395
0 -395 0 0 395 0 395 395 0 395 0 0 -395z"/>
<path d="M2011 6093 c2 -46 2 -47 8 -13 l7 35 20 -32 c10 -18 22 -33 27 -33 4
0 6 21 6 48 -2 44 -2 45 -8 12 l-6 -35 -20 33 c-11 17 -23 32 -27 32 -4 0 -7
-21 -7 -47z"/>
<path d="M2228 6128 c-2 -7 -1 -29 3 -48 6 -35 6 -35 8 -5 2 17 4 38 6 48 4
19 -11 24 -17 5z"/>
<path d="M2169 6125 c-7 -6 2 -75 10 -75 3 0 6 16 5 35 -1 35 -6 49 -15 40z"/>
<path d="M2409 6125 c-7 -6 2 -75 10 -75 3 0 6 16 5 35 -1 35 -6 49 -15 40z"/>
<path d="M2102 6107 c-18 -21 -3 -59 22 -55 16 2 21 10 21 33 0 33 -24 45 -43
22z m35 -31 c-4 -9 -11 -16 -17 -16 -11 0 -14 33 -3 43 11 11 26 -10 20 -27z"/>
<path d="M2203 6085 c0 -22 2 -30 4 -17 2 12 2 30 0 40 -3 9 -5 -1 -4 -23z"/>
<path d="M2263 6085 c0 -22 2 -30 4 -17 2 12 2 30 0 40 -3 9 -5 -1 -4 -23z"/>
<path d="M2285 6101 c-8 -26 4 -51 26 -51 10 0 19 4 19 9 0 5 -8 8 -17 7 -12
-1 -18 6 -18 19 0 13 6 20 17 19 10 -1 15 2 12 7 -9 16 -32 10 -39 -10z"/>
<path d="M2355 6110 c-3 -6 1 -7 9 -4 9 3 16 2 16 -4 0 -5 -9 -12 -21 -15 -29
-8 -19 -31 16 -35 22 -3 27 0 21 13 -3 9 -6 25 -6 36 0 20 -24 26 -35 9z m25
-40 c0 -5 -4 -10 -10 -10 -5 0 -10 5 -10 10 0 6 5 10 10 10 6 0 10 -4 10 -10z"/>
<path d="M2474 6106 c-10 -26 0 -51 21 -51 16 0 20 7 20 30 0 33 -30 49 -41
21z m36 -27 c0 -10 -7 -19 -15 -19 -15 0 -21 31 -9 43 11 10 24 -3 24 -24z"/>
<path d="M2541 6081 c1 -36 1 -36 8 -6 3 17 11 30 16 30 5 0 13 -13 17 -30 6
-29 6 -29 5 5 -2 29 -6 35 -24 36 -20 1 -23 -3 -22 -35z"/>
<path d="M2440 6080 c0 -16 5 -30 10 -30 6 0 10 14 10 30 0 17 -4 30 -10 30
-5 0 -10 -13 -10 -30z"/>
<path d="M2510 5990 c0 -5 -7 -10 -15 -10 -18 0 -34 -28 -28 -51 3 -12 14 -19
29 -19 22 0 24 4 24 45 0 25 -2 45 -5 45 -3 0 -5 -4 -5 -10z m-3 -54 c-4 -9
-11 -16 -17 -16 -11 0 -14 33 -3 43 11 11 26 -10 20 -27z"/>
<path d="M2081 5941 c1 -28 3 -30 6 -11 3 14 9 30 14 36 5 7 3 11 -6 11 -11 0
-15 -11 -14 -36z"/>
<path d="M2127 5974 c-4 -4 -7 -18 -7 -31 0 -26 26 -41 42 -25 8 8 5 9 -11 5
-12 -3 -21 -1 -21 6 0 6 9 11 21 11 14 0 19 5 17 17 -3 19 -29 29 -41 17z m28
-14 c3 -5 -1 -10 -10 -10 -9 0 -13 5 -10 10 3 6 8 10 10 10 2 0 7 -4 10 -10z"/>
<path d="M2192 5967 c-16 -19 -3 -57 19 -57 11 0 19 4 19 10 0 5 -7 7 -15 4
-11 -5 -15 1 -15 21 0 20 4 26 15 21 8 -3 15 -1 15 4 0 14 -26 12 -38 -3z"/>
<path d="M2251 5961 c-6 -11 -8 -27 -5 -35 7 -17 39 -22 48 -7 4 5 -3 7 -14 4
-11 -3 -20 0 -20 6 0 6 9 11 21 11 14 0 19 5 17 17 -5 25 -35 28 -47 4z m34
-1 c3 -5 -1 -10 -10 -10 -9 0 -13 5 -10 10 3 6 8 10 10 10 2 0 7 -4 10 -10z"/>
<path d="M2341 5970 c-1 -24 11 -60 19 -60 9 0 32 61 26 68 -3 2 -8 -9 -12
-24 l-7 -29 -13 30 c-7 17 -13 23 -13 15z"/>
<path d="M2407 5974 c-4 -4 -7 -18 -7 -31 0 -26 26 -41 42 -25 8 8 5 9 -11 5
-12 -3 -21 -1 -21 6 0 6 9 11 21 11 14 0 19 5 17 17 -3 19 -29 29 -41 17z m28
-14 c3 -5 -1 -10 -10 -10 -9 0 -13 5 -10 10 3 6 8 10 10 10 2 0 7 -4 10 -10z"/>
<path d="M2310 5940 c0 -16 5 -30 10 -30 6 0 10 14 10 30 0 17 -4 30 -10 30
-5 0 -10 -13 -10 -30z"/>
<path d="M490 6096 c0 -42 2 -46 25 -46 18 0 29 8 37 26 15 33 1 58 -36 62
-25 3 -26 1 -26 -42z m49 20 c9 -11 10 -20 1 -35 -18 -34 -40 -26 -40 14 0 37
18 47 39 21z"/>
<path d="M703 6095 c0 -27 2 -38 4 -22 2 15 2 37 0 50 -2 12 -4 0 -4 -28z"/>
<path d="M899 6125 c-7 -6 2 -75 10 -75 3 0 6 16 5 35 -1 35 -6 49 -15 40z"/>
<path d="M577 6114 c-4 -4 -7 -18 -7 -31 0 -26 26 -41 42 -25 8 8 5 9 -11 5
-12 -3 -21 -1 -21 6 0 6 9 11 21 11 14 0 19 5 17 17 -3 19 -29 29 -41 17z m28
-14 c3 -5 -1 -10 -10 -10 -9 0 -13 5 -10 10 3 6 8 10 10 10 2 0 7 -4 10 -10z"/>
<path d="M642 6107 c-16 -19 -3 -57 19 -57 11 0 19 4 19 10 0 5 -7 7 -15 4
-11 -5 -15 1 -15 21 0 20 4 26 15 21 8 -3 15 -1 15 4 0 14 -26 12 -38 -3z"/>
<path d="M735 6110 c-3 -6 1 -7 9 -4 9 3 16 2 16 -4 0 -5 -9 -12 -21 -15 -29
-8 -19 -31 16 -35 22 -3 27 0 21 13 -3 9 -6 25 -6 36 0 20 -24 26 -35 9z m25
-40 c0 -5 -4 -10 -10 -10 -5 0 -10 5 -10 10 0 6 5 10 10 10 6 0 10 -4 10 -10z"/>
<path d="M791 6081 c1 -28 3 -30 6 -11 3 14 9 30 14 36 5 7 3 11 -6 11 -11 0
-15 -11 -14 -36z"/>
<path d="M834 6109 c-5 -9 -2 -10 9 -6 9 3 19 2 22 -2 2 -5 -4 -11 -15 -14
-32 -8 -25 -37 9 -37 27 0 28 2 22 32 -7 34 -33 49 -47 27z m31 -39 c-3 -5
-10 -10 -16 -10 -5 0 -9 5 -9 10 0 6 7 10 16 10 8 0 12 -4 9 -10z"/>
<path d="M933 6085 c0 -22 2 -30 4 -17 2 12 2 30 0 40 -3 9 -5 -1 -4 -23z"/>
<path d="M962 6107 c-18 -21 -3 -59 22 -55 16 2 21 10 21 33 0 33 -24 45 -43
22z m35 -31 c-4 -9 -11 -16 -17 -16 -11 0 -14 33 -3 43 11 11 26 -10 20 -27z"/>
<path d="M1027 6113 c-11 -10 -8 -63 3 -63 6 0 10 14 10 30 0 40 17 38 29 -2
7 -24 9 -27 10 -11 1 33 -9 53 -28 53 -10 0 -21 -3 -24 -7z"/>
<path d="M1230 6025 c0 -25 5 -45 10 -45 6 0 10 20 10 45 0 25 -4 45 -10 45
-5 0 -10 -20 -10 -45z"/>
<path d="M1270 6025 c0 -44 0 -45 33 -44 30 2 30 2 5 6 -16 2 -28 10 -28 18 0
8 12 16 28 18 l27 4 -27 2 c-17 0 -28 7 -28 15 0 8 12 17 28 19 25 4 25 4 -5
6 -33 1 -33 0 -33 -44z"/>
<path d="M1352 6058 c-24 -24 -11 -78 19 -78 34 0 37 76 3 87 -5 2 -15 -2 -22
-9z m35 -52 c-4 -9 -11 -16 -16 -16 -17 0 -23 40 -10 57 12 13 14 13 22 -5 5
-12 7 -28 4 -36z"/>
<path d="M1487 6063 c-14 -13 -7 -41 11 -39 9 0 17 -6 17 -14 0 -8 -8 -14 -17
-14 -10 1 -18 -3 -18 -8 0 -5 10 -8 23 -6 30 4 36 44 8 53 -26 8 -27 22 -3 28
14 4 14 5 1 6 -9 0 -19 -2 -22 -6z"/>
<path d="M1429 6055 c-8 -8 3 -75 12 -75 5 0 9 18 9 40 0 36 -8 49 -21 35z"/>
<path d="M660 5956 c0 -42 2 -46 24 -46 31 0 48 22 44 57 -2 23 -8 29 -35 31
-33 3 -33 3 -33 -42z m55 -1 c0 -23 -4 -30 -20 -30 -15 0 -21 8 -23 33 -3 30
-1 33 20 30 18 -2 23 -9 23 -33z"/>
<path d="M819 5985 c-7 -6 2 -75 10 -75 3 0 6 16 5 35 -1 35 -6 49 -15 40z"/>
<path d="M755 5971 c-3 -7 0 -8 9 -5 9 3 16 1 16 -5 0 -6 -7 -11 -15 -11 -8 0
-15 -9 -15 -20 0 -15 7 -20 26 -20 23 0 25 3 22 32 -3 33 -29 50 -43 29z m30
-41 c-3 -5 -10 -10 -16 -10 -5 0 -9 5 -9 10 0 6 7 10 16 10 8 0 12 -4 9 -10z"/>
<path d="M855 5971 c-3 -7 0 -8 9 -5 9 3 16 1 16 -5 0 -6 -7 -11 -15 -11 -8 0
-15 -9 -15 -20 0 -15 7 -20 26 -20 23 0 25 3 22 32 -3 33 -29 50 -43 29z m30
-41 c-3 -5 -10 -10 -16 -10 -5 0 -9 5 -9 10 0 6 7 10 16 10 8 0 12 -4 9 -10z"/>
<path d="M578 5623 c111 -2 293 -2 405 0 111 1 20 2 -203 2 -223 0 -314 -1
-202 -2z"/>
<path d="M350 5040 l0 -200 -125 0 -125 0 0 -1205 0 -1205 91 0 c77 0 90 -2
85 -15 -7 -19 7 -19 44 0 l30 16 0 -201 0 -200 405 0 405 0 0 405 0 405 -200
0 -201 0 16 30 c19 37 19 51 0 44 -13 -5 -15 16 -15 155 l0 161 200 0 200 0 0
200 0 201 30 -16 c37 -19 51 -19 44 0 -5 12 16 15 133 18 l138 3 -139 2 c-118
2 -137 4 -132 17 7 19 -7 19 -44 0 l-30 -16 0 201 0 200 -405 0 -405 0 0 -405
0 -405 200 0 200 0 0 -161 c0 -139 -2 -160 -15 -155 -19 7 -19 -7 0 -44 l16
-30 -201 0 -200 0 0 -200 0 -201 -30 16 c-37 19 -51 19 -44 0 5 -13 -8 -15
-80 -15 l-86 0 0 1195 0 1195 120 0 120 0 0 -200 0 -200 405 0 405 0 0 200 0
201 30 -16 c37 -19 51 -19 44 0 -5 12 16 15 133 18 l138 3 -139 2 c-118 2
-137 4 -132 17 7 19 -7 19 -44 0 l-30 -16 0 201 0 200 -405 0 -405 0 0 -200z
m800 -205 l0 -395 -395 0 -395 0 0 395 0 395 395 0 395 0 0 -395z m0 -1200 l0
-395 -395 0 -395 0 0 395 0 395 395 0 395 0 0 -395z m0 -1200 l0 -395 -395 0
-395 0 0 395 0 395 395 0 395 0 0 -395z"/>
<path d="M461 4903 c2 -46 2 -47 8 -13 l7 35 20 -32 c10 -18 22 -33 27 -33 4
0 6 21 6 48 -2 44 -2 45 -8 12 l-6 -35 -20 33 c-11 17 -23 32 -27 32 -4 0 -7
-21 -7 -47z"/>
<path d="M678 4938 c-2 -7 -1 -29 3 -48 6 -35 6 -35 8 -5 2 17 4 38 6 48 4 19
-11 24 -17 5z"/>
<path d="M619 4935 c-7 -6 2 -75 10 -75 3 0 6 16 5 35 -1 35 -6 49 -15 40z"/>
<path d="M859 4935 c-7 -6 2 -75 10 -75 3 0 6 16 5 35 -1 35 -6 49 -15 40z"/>
<path d="M552 4917 c-18 -21 -3 -59 22 -55 16 2 21 10 21 33 0 33 -24 45 -43
22z m35 -31 c-4 -9 -11 -16 -17 -16 -11 0 -14 33 -3 44 11 10 26 -11 20 -28z"/>
<path d="M653 4895 c0 -22 2 -30 4 -17 2 12 2 30 0 40 -3 9 -5 -1 -4 -23z"/>
<path d="M713 4895 c0 -22 2 -30 4 -17 2 12 2 30 0 40 -3 9 -5 -1 -4 -23z"/>
<path d="M735 4911 c-8 -26 4 -51 26 -51 10 0 19 4 19 9 0 5 -8 8 -17 7 -12
-1 -18 6 -18 19 0 13 6 20 17 19 10 -1 15 2 12 7 -9 16 -32 10 -39 -10z"/>
<path d="M805 4920 c-3 -6 1 -7 9 -4 9 3 16 2 16 -4 0 -5 -9 -12 -21 -15 -29
-8 -19 -31 16 -35 22 -3 27 0 21 13 -3 9 -6 25 -6 36 0 20 -24 26 -35 9z m25
-40 c0 -5 -4 -10 -10 -10 -5 0 -10 5 -10 10 0 6 5 10 10 10 6 0 10 -4 10 -10z"/>
<path d="M924 4916 c-10 -26 0 -51 21 -51 16 0 20 7 20 30 0 33 -30 49 -41 21z
m36 -27 c0 -10 -7 -19 -15 -19 -15 0 -21 31 -9 43 11 10 24 -3 24 -24z"/>
<path d="M991 4891 c1 -36 1 -36 8 -6 3 17 11 30 16 30 5 0 13 -13 17 -30 6
-29 6 -29 5 5 -2 29 -6 35 -24 36 -20 1 -23 -3 -22 -35z"/>
<path d="M890 4890 c0 -16 5 -30 10 -30 6 0 10 14 10 30 0 17 -4 30 -10 30 -5
0 -10 -13 -10 -30z"/>
<path d="M960 4800 c0 -5 -7 -10 -15 -10 -18 0 -34 -28 -28 -51 3 -12 14 -19
29 -19 22 0 24 4 24 45 0 25 -2 45 -5 45 -3 0 -5 -4 -5 -10z m-3 -54 c-4 -9
-11 -16 -17 -16 -11 0 -14 33 -3 44 11 10 26 -11 20 -28z"/>
<path d="M531 4751 c1 -28 3 -30 6 -11 3 14 9 30 14 36 5 7 3 11 -6 11 -11 0
-15 -11 -14 -36z"/>
<path d="M577 4784 c-4 -4 -7 -18 -7 -31 0 -26 26 -41 42 -25 8 8 5 9 -11 5
-12 -3 -21 -1 -21 6 0 6 9 11 21 11 14 0 19 5 17 17 -3 19 -29 29 -41 17z m28
-14 c3 -5 -1 -10 -10 -10 -9 0 -13 5 -10 10 3 6 8 10 10 10 2 0 7 -4 10 -10z"/>
<path d="M642 4777 c-16 -19 -3 -57 19 -57 11 0 19 4 19 10 0 5 -7 7 -15 4
-11 -5 -15 1 -15 21 0 20 4 26 15 21 8 -3 15 -1 15 4 0 14 -26 12 -38 -3z"/>
<path d="M701 4771 c-6 -11 -8 -27 -5 -35 7 -17 39 -22 48 -7 4 5 -3 7 -14 4
-11 -3 -20 0 -20 6 0 6 9 11 21 11 14 0 19 5 17 17 -5 25 -35 28 -47 4z m34
-1 c3 -5 -1 -10 -10 -10 -9 0 -13 5 -10 10 3 6 8 10 10 10 2 0 7 -4 10 -10z"/>
<path d="M791 4780 c-1 -24 11 -60 19 -60 9 0 32 61 26 68 -3 2 -8 -9 -12 -24
l-7 -29 -13 30 c-7 17 -13 23 -13 15z"/>
<path d="M857 4784 c-4 -4 -7 -18 -7 -31 0 -26 26 -41 42 -25 8 8 5 9 -11 5
-12 -3 -21 -1 -21 6 0 6 9 11 21 11 14 0 19 5 17 17 -3 19 -29 29 -41 17z m28
-14 c3 -5 -1 -10 -10 -10 -9 0 -13 5 -10 10 3 6 8 10 10 10 2 0 7 -4 10 -10z"/>
<path d="M760 4750 c0 -16 5 -30 10 -30 6 0 10 14 10 30 0 17 -4 30 -10 30 -5
0 -10 -13 -10 -30z"/>
<path d="M461 3703 c2 -46 2 -47 8 -13 l7 35 20 -32 c10 -18 22 -33 27 -33 4
0 6 21 6 48 -2 44 -2 45 -8 12 l-6 -35 -20 33 c-11 17 -23 32 -27 32 -4 0 -7
-21 -7 -47z"/>
<path d="M678 3738 c-2 -7 -1 -29 3 -48 6 -35 6 -35 8 -5 2 17 4 38 6 48 4 19
-11 24 -17 5z"/>
<path d="M619 3735 c-7 -6 2 -75 10 -75 3 0 6 16 5 35 -1 35 -6 49 -15 40z"/>
<path d="M859 3735 c-7 -6 2 -75 10 -75 3 0 6 16 5 35 -1 35 -6 49 -15 40z"/>
<path d="M552 3717 c-18 -21 -3 -59 22 -55 16 2 21 10 21 33 0 33 -24 45 -43
22z m35 -31 c-4 -9 -11 -16 -17 -16 -11 0 -14 33 -3 44 11 10 26 -11 20 -28z"/>
<path d="M653 3695 c0 -22 2 -30 4 -17 2 12 2 30 0 40 -3 9 -5 -1 -4 -23z"/>
<path d="M713 3695 c0 -22 2 -30 4 -17 2 12 2 30 0 40 -3 9 -5 -1 -4 -23z"/>
<path d="M735 3711 c-8 -26 4 -51 26 -51 10 0 19 4 19 9 0 5 -8 8 -17 7 -12
-1 -18 6 -18 19 0 13 6 20 17 19 10 -1 15 2 12 7 -9 16 -32 10 -39 -10z"/>
<path d="M805 3720 c-3 -6 1 -7 9 -4 9 3 16 2 16 -4 0 -5 -9 -12 -21 -15 -29
-8 -19 -31 16 -35 22 -3 27 0 21 13 -3 9 -6 25 -6 36 0 20 -24 26 -35 9z m25
-40 c0 -5 -4 -10 -10 -10 -5 0 -10 5 -10 10 0 6 5 10 10 10 6 0 10 -4 10 -10z"/>
<path d="M924 3716 c-10 -26 0 -51 21 -51 16 0 20 7 20 30 0 33 -30 49 -41 21z
m36 -27 c0 -10 -7 -19 -15 -19 -15 0 -21 31 -9 43 11 10 24 -3 24 -24z"/>
<path d="M991 3691 c1 -36 1 -36 8 -6 3 17 11 30 16 30 5 0 13 -13 17 -30 6
-29 6 -29 5 5 -2 29 -6 35 -24 36 -20 1 -23 -3 -22 -35z"/>
<path d="M890 3690 c0 -16 5 -30 10 -30 6 0 10 14 10 30 0 17 -4 30 -10 30 -5
0 -10 -13 -10 -30z"/>
<path d="M960 3600 c0 -5 -7 -10 -15 -10 -18 0 -34 -28 -28 -51 3 -12 14 -19
29 -19 22 0 24 4 24 45 0 25 -2 45 -5 45 -3 0 -5 -4 -5 -10z m-3 -54 c-4 -9
-11 -16 -17 -16 -11 0 -14 33 -3 44 11 10 26 -11 20 -28z"/>
<path d="M531 3551 c1 -28 3 -30 6 -11 3 14 9 30 14 36 5 7 3 11 -6 11 -11 0
-15 -11 -14 -36z"/>
<path d="M577 3584 c-4 -4 -7 -18 -7 -31 0 -26 26 -41 42 -25 8 8 5 9 -11 5
-12 -3 -21 -1 -21 6 0 6 9 11 21 11 14 0 19 5 17 17 -3 19 -29 29 -41 17z m28
-14 c3 -5 -1 -10 -10 -10 -9 0 -13 5 -10 10 3 6 8 10 10 10 2 0 7 -4 10 -10z"/>
<path d="M642 3577 c-16 -19 -3 -57 19 -57 11 0 19 4 19 10 0 5 -7 7 -15 4
-11 -5 -15 1 -15 21 0 20 4 26 15 21 8 -3 15 -1 15 4 0 14 -26 12 -38 -3z"/>
<path d="M701 3571 c-6 -11 -8 -27 -5 -35 7 -17 39 -22 48 -7 4 5 -3 7 -14 4
-11 -3 -20 0 -20 6 0 6 9 11 21 11 14 0 19 5 17 17 -5 25 -35 28 -47 4z m34
-1 c3 -5 -1 -10 -10 -10 -9 0 -13 5 -10 10 3 6 8 10 10 10 2 0 7 -4 10 -10z"/>
<path d="M791 3580 c-1 -24 11 -60 19 -60 9 0 32 61 26 68 -3 2 -8 -9 -12 -24
l-7 -29 -13 30 c-7 17 -13 23 -13 15z"/>
<path d="M857 3584 c-4 -4 -7 -18 -7 -31 0 -26 26 -41 42 -25 8 8 5 9 -11 5
-12 -3 -21 -1 -21 6 0 6 9 11 21 11 14 0 19 5 17 17 -3 19 -29 29 -41 17z m28
-14 c3 -5 -1 -10 -10 -10 -9 0 -13 5 -10 10 3 6 8 10 10 10 2 0 7 -4 10 -10z"/>
<path d="M760 3550 c0 -16 5 -30 10 -30 6 0 10 14 10 30 0 17 -4 30 -10 30 -5
0 -10 -13 -10 -30z"/>
<path d="M460 2576 c0 -42 2 -46 25 -46 18 0 29 8 37 26 15 33 1 58 -36 62
-25 3 -26 1 -26 -42z m49 20 c9 -11 10 -20 1 -35 -18 -34 -40 -26 -40 14 0 37
18 47 39 21z"/>
<path d="M673 2575 c0 -27 2 -38 4 -22 2 15 2 37 0 50 -2 12 -4 0 -4 -28z"/>
<path d="M869 2605 c-7 -6 2 -75 10 -75 3 0 6 16 5 35 -1 35 -6 49 -15 40z"/>
<path d="M547 2594 c-4 -4 -7 -18 -7 -31 0 -26 26 -41 42 -25 8 8 5 9 -11 5
-12 -3 -21 -1 -21 6 0 6 9 11 21 11 14 0 19 5 17 17 -3 19 -29 29 -41 17z m28
-14 c3 -5 -1 -10 -10 -10 -9 0 -13 5 -10 10 3 6 8 10 10 10 2 0 7 -4 10 -10z"/>
<path d="M612 2587 c-16 -19 -3 -57 19 -57 11 0 19 4 19 10 0 5 -7 7 -15 4
-11 -5 -15 1 -15 21 0 20 4 26 15 21 8 -3 15 -1 15 4 0 14 -26 12 -38 -3z"/>
<path d="M705 2590 c-3 -6 1 -7 9 -4 9 3 16 2 16 -4 0 -5 -9 -12 -21 -15 -29
-8 -19 -31 16 -35 22 -3 27 0 21 13 -3 9 -6 25 -6 36 0 20 -24 26 -35 9z m25
-40 c0 -5 -4 -10 -10 -10 -5 0 -10 5 -10 10 0 6 5 10 10 10 6 0 10 -4 10 -10z"/>
<path d="M761 2561 c1 -28 3 -30 6 -11 3 14 9 30 14 36 5 7 3 11 -6 11 -11 0
-15 -11 -14 -36z"/>
<path d="M804 2589 c-5 -9 -2 -10 9 -6 9 3 19 2 22 -2 2 -5 -4 -11 -15 -14
-32 -8 -25 -37 9 -37 27 0 28 2 22 32 -7 34 -33 49 -47 27z m31 -39 c-3 -5
-10 -10 -16 -10 -5 0 -9 5 -9 10 0 6 7 10 16 10 8 0 12 -4 9 -10z"/>
<path d="M903 2565 c0 -22 2 -30 4 -17 2 12 2 30 0 40 -3 9 -5 -1 -4 -23z"/>
<path d="M932 2587 c-18 -21 -3 -59 22 -55 16 2 21 10 21 33 0 33 -24 45 -43
22z m35 -31 c-4 -9 -11 -16 -17 -16 -11 0 -14 33 -3 44 11 10 26 -11 20 -28z"/>
<path d="M997 2593 c-11 -10 -8 -63 3 -63 6 0 10 14 10 30 0 40 17 38 29 -2 7
-24 9 -27 10 -11 1 33 -9 53 -28 53 -10 0 -21 -3 -24 -7z"/>
<path d="M434 2467 c-3 -9 -4 -28 -2 -44 2 -22 9 -29 29 -31 18 -2 29 3 33 14
5 14 4 15 -9 4 -21 -18 -45 -5 -45 25 0 31 24 43 47 24 14 -12 16 -12 11 1 -6
20 -56 26 -64 7z"/>
<path d="M783 2435 c0 -27 2 -38 4 -22 2 15 2 37 0 50 -2 12 -4 0 -4 -28z"/>
<path d="M803 2435 c0 -27 2 -38 4 -22 2 15 2 37 0 50 -2 12 -4 0 -4 -28z"/>
<path d="M899 2465 c-7 -6 2 -75 10 -75 3 0 6 16 5 35 -1 35 -6 49 -15 40z"/>
<path d="M525 2450 c-3 -6 1 -7 9 -4 9 3 16 2 16 -4 0 -5 -9 -12 -21 -15 -29
-8 -19 -31 16 -35 22 -3 27 0 21 13 -3 9 -6 25 -6 36 0 20 -24 26 -35 9z m25
-40 c0 -5 -4 -10 -10 -10 -5 0 -10 5 -10 10 0 6 5 10 10 10 6 0 10 -4 10 -10z"/>
<path d="M581 2421 c1 -36 1 -36 8 -6 3 17 11 30 16 30 5 0 13 -13 17 -30 6
-29 6 -29 5 5 -2 29 -6 35 -24 36 -20 1 -23 -3 -22 -35z"/>
<path d="M652 2447 c-16 -19 -3 -57 19 -57 11 0 19 4 19 10 0 5 -7 7 -15 4
-11 -5 -15 1 -15 21 0 20 4 26 15 21 8 -3 15 -1 15 4 0 14 -26 12 -38 -3z"/>
<path d="M711 2441 c-6 -11 -8 -27 -5 -35 7 -17 39 -22 48 -7 4 5 -3 7 -14 4
-11 -3 -20 0 -20 6 0 6 9 11 21 11 14 0 19 5 17 17 -5 25 -35 28 -47 4z m34
-1 c3 -5 -1 -10 -10 -10 -9 0 -13 5 -10 10 3 6 8 10 10 10 2 0 7 -4 10 -10z"/>
<path d="M835 2451 c-3 -7 0 -8 9 -5 9 3 16 1 16 -5 0 -6 -7 -11 -15 -11 -8 0
-15 -9 -15 -20 0 -15 7 -20 26 -20 23 0 25 3 22 32 -3 33 -29 50 -43 29z m30
-41 c-3 -5 -10 -10 -16 -10 -5 0 -9 5 -9 10 0 6 7 10 16 10 8 0 12 -4 9 -10z"/>
<path d="M933 2425 c0 -22 2 -30 4 -17 2 12 2 30 0 40 -3 9 -5 -1 -4 -23z"/>
<path d="M960 2445 c-16 -19 -3 -55 20 -55 21 0 37 40 25 59 -9 15 -30 14 -45
-4z m37 -11 c8 -20 -13 -42 -27 -28 -12 12 -3 44 11 44 5 0 12 -7 16 -16z"/>
<path d="M1021 2421 c1 -36 1 -36 8 -6 3 17 11 30 16 30 5 0 13 -13 17 -30 6
-29 6 -29 5 5 -2 29 -6 35 -24 36 -20 1 -23 -3 -22 -35z"/>
<path d="M541 2293 c1 -27 4 -38 6 -25 6 29 43 31 43 2 0 -11 4 -20 8 -20 8 0
8 14 3 83 -1 4 -14 7 -31 7 -29 0 -30 -1 -29 -47z m49 22 c0 -8 -9 -15 -20
-15 -11 0 -20 7 -20 15 0 8 9 15 20 15 11 0 20 -7 20 -15z"/>
<path d="M949 2325 c-7 -6 2 -75 10 -75 3 0 6 16 5 35 -1 35 -6 49 -15 40z"/>
<path d="M627 2314 c-4 -4 -7 -18 -7 -31 0 -26 26 -41 42 -25 8 8 5 9 -11 5
-12 -3 -21 -1 -21 6 0 6 9 11 21 11 14 0 19 5 17 17 -3 19 -29 29 -41 17z m28
-14 c3 -5 -1 -10 -10 -10 -9 0 -13 5 -10 10 3 6 8 10 10 10 2 0 7 -4 10 -10z"/>
<path d="M690 2300 c-13 -24 -3 -50 20 -50 10 0 21 -6 23 -12 3 -7 6 7 6 32 1
39 -2 46 -19 47 -11 1 -24 -7 -30 -17z m37 -24 c-4 -9 -11 -16 -17 -16 -11 0
-14 33 -3 44 11 10 26 -11 20 -28z"/>
<path d="M827 2314 c-4 -4 -7 -18 -7 -31 0 -26 26 -41 42 -25 8 8 5 9 -11 5
-12 -3 -21 -1 -21 6 0 6 9 11 21 11 14 0 19 5 17 17 -3 19 -29 29 -41 17z m28
-14 c3 -5 -1 -10 -10 -10 -9 0 -13 5 -10 10 3 6 8 10 10 10 2 0 7 -4 10 -10z"/>
<path d="M897 2313 c-13 -12 -7 -33 8 -33 8 0 15 -5 15 -11 0 -6 -7 -9 -15 -5
-8 3 -15 1 -15 -4 0 -6 9 -10 20 -10 13 0 20 7 20 20 0 11 -7 20 -15 20 -8 0
-15 5 -15 11 0 6 7 8 16 5 8 -3 12 -2 9 4 -7 12 -19 13 -28 3z"/>
<path d="M750 2296 c0 -30 13 -46 36 -46 20 0 24 5 24 30 0 17 -4 30 -10 30
-5 0 -10 -11 -10 -25 0 -14 -4 -25 -10 -25 -5 0 -10 11 -10 25 0 14 -4 25 -10
25 -5 0 -10 -6 -10 -14z"/>
<path d="M1900 4835 l0 -405 405 0 405 0 0 405 0 405 -405 0 -405 0 0 -405z
m800 0 l0 -395 -395 0 -395 0 0 395 0 395 395 0 395 0 0 -395z"/>
<path d="M2031 5043 c2 -46 2 -46 8 -13 l7 35 8 -32 c4 -18 11 -33 16 -33 5 0
12 15 16 33 l8 32 7 -35 c6 -33 6 -33 8 13 1 52 -14 63 -24 17 -4 -16 -10 -30
-15 -30 -5 0 -11 14 -15 30 -10 46 -25 35 -24 -17z"/>
<path d="M2559 5075 c-7 -6 2 -75 10 -75 3 0 6 16 5 35 -1 35 -6 49 -15 40z"/>
<path d="M2132 5057 c-18 -21 -3 -59 22 -55 16 2 21 10 21 33 0 33 -24 45 -43
22z m35 -31 c-4 -9 -11 -16 -17 -16 -11 0 -14 33 -3 44 11 10 26 -11 20 -28z"/>
<path d="M2191 5069 c-1 -3 4 -21 11 -39 10 -31 12 -32 25 -15 7 11 13 28 12
39 0 17 -3 15 -11 -8 l-11 -29 -13 29 c-7 16 -13 26 -13 23z"/>
<path d="M2260 5055 c-26 -32 15 -75 44 -45 8 9 6 11 -11 5 -14 -4 -23 -2 -23
4 0 6 9 11 21 11 15 0 19 4 15 16 -3 9 -6 18 -6 20 0 10 -29 3 -40 -11z m35
-5 c3 -5 -1 -10 -9 -10 -9 0 -16 5 -16 10 0 6 4 10 9 10 6 0 13 -4 16 -10z"/>
<path d="M2321 5030 l1 -35 7 30 c3 17 11 30 16 30 5 0 13 -13 16 -30 7 -30 7
-30 8 -3 2 39 19 44 24 6 l4 -33 1 37 c2 37 2 37 -38 35 -39 -1 -40 -2 -39
-37z"/>
<path d="M2427 5064 c-4 -4 -7 -18 -7 -31 0 -26 26 -41 42 -25 8 8 5 9 -11 5
-12 -3 -21 -1 -21 6 0 6 9 11 21 11 14 0 19 5 17 17 -3 19 -29 29 -41 17z m28
-14 c3 -5 -1 -10 -10 -10 -9 0 -13 5 -10 10 3 6 8 10 10 10 2 0 7 -4 10 -10z"/>
<path d="M2491 5031 c1 -36 1 -36 8 -6 3 17 11 30 16 30 5 0 13 -13 17 -30 6
-29 6 -29 5 5 -2 29 -6 35 -24 36 -20 1 -23 -3 -22 -35z"/>
<path d="M2030 4905 c0 -28 4 -44 10 -40 6 3 10 13 10 21 0 22 30 16 40 -8 7
-18 8 -14 7 22 -2 43 -3 45 -34 48 -33 3 -33 3 -33 -43z m53 20 c1 -5 -6 -11
-15 -13 -11 -2 -18 3 -18 13 0 17 30 18 33 0z"/>
<path d="M2188 4938 c-2 -7 -1 -29 3 -48 6 -35 6 -35 8 -5 2 17 4 38 6 48 4
19 -11 24 -17 5z"/>
<path d="M2121 4911 c-6 -11 -8 -27 -5 -35 7 -17 39 -22 48 -7 4 5 -3 7 -14 4
-11 -3 -20 0 -20 6 0 6 9 11 21 11 14 0 19 5 17 17 -5 25 -35 28 -47 4z m34
-1 c3 -5 -1 -10 -10 -10 -9 0 -13 5 -10 10 3 6 8 10 10 10 2 0 7 -4 10 -10z"/>
<path d="M2221 4911 c-6 -11 -8 -27 -5 -35 7 -17 39 -22 48 -7 4 5 -3 7 -14 4
-11 -3 -20 0 -20 6 0 6 9 11 21 11 14 0 19 5 17 17 -5 25 -35 28 -47 4z m34
-1 c3 -5 -1 -10 -10 -10 -9 0 -13 5 -10 10 3 6 8 10 10 10 2 0 7 -4 10 -10z"/>
<path d="M2291 4893 c1 -28 3 -31 6 -13 3 14 10 31 15 38 8 9 6 12 -6 12 -12
0 -16 -9 -15 -37z"/>
<path d="M2330 4915 c-26 -32 15 -75 44 -45 8 9 6 11 -11 5 -14 -4 -23 -2 -23
4 0 6 9 11 21 11 15 0 19 4 15 16 -3 9 -6 18 -6 20 0 10 -29 3 -40 -11z m35
-5 c3 -5 -1 -10 -9 -10 -9 0 -16 5 -16 10 0 6 4 10 9 10 6 0 13 -4 16 -10z"/>
<path d="M2391 4891 c1 -36 1 -36 8 -6 3 17 11 30 16 30 5 0 13 -13 17 -30 6
-29 6 -29 5 5 -2 29 -6 35 -24 36 -20 1 -23 -3 -22 -35z"/>
<path d="M2462 4917 c-16 -19 -3 -57 19 -57 11 0 19 4 19 10 0 5 -7 7 -15 4
-11 -5 -15 1 -15 21 0 20 4 26 15 21 8 -3 15 -1 15 4 0 14 -26 12 -38 -3z"/>
<path d="M2521 4911 c-6 -11 -8 -27 -5 -35 7 -17 39 -22 48 -7 4 5 -3 7 -14 4
-11 -3 -20 0 -20 6 0 6 9 11 21 11 14 0 19 5 17 17 -5 25 -35 28 -47 4z m34
-1 c3 -5 -1 -10 -10 -10 -9 0 -13 5 -10 10 3 6 8 10 10 10 2 0 7 -4 10 -10z"/>
<path d="M2102 4765 c1 -37 2 -41 5 -17 4 31 5 33 18 15 8 -10 15 -13 15 -7 0
7 -9 22 -20 35 l-19 24 1 -50z"/>
<path d="M2149 4780 c-1 -16 -2 -35 -3 -42 -1 -6 5 -13 12 -15 8 -3 12 9 12
41 0 50 -19 64 -21 16z"/>
<path d="M2350 4767 c0 -44 2 -48 23 -45 29 4 37 55 10 65 -10 4 -21 11 -25
17 -4 6 -8 -11 -8 -37z m37 -21 c-4 -9 -11 -16 -17 -16 -11 0 -14 33 -3 44 11
10 26 -11 20 -28z"/>
<path d="M2183 4758 c1 -26 7 -34 25 -36 20 -3 22 1 21 35 -1 35 -2 36 -8 9
-8 -40 -28 -44 -35 -7 l-6 31 3 -32z"/>
<path d="M2251 4751 c1 -27 3 -30 6 -11 7 40 23 48 23 12 0 -18 5 -32 10 -32
6 0 10 14 10 30 0 40 18 38 23 -2 l5 -33 -2 35 c-1 33 -3 35 -38 36 -37 1 -38
0 -37 -35z"/>
<path d="M2420 4775 c-26 -32 15 -75 44 -45 8 9 6 11 -11 5 -14 -4 -23 -2 -23
4 0 6 9 11 21 11 15 0 19 4 15 16 -3 9 -6 18 -6 20 0 10 -29 3 -40 -11z m35
-5 c3 -5 -1 -10 -9 -10 -9 0 -16 5 -16 10 0 6 4 10 9 10 6 0 13 -4 16 -10z"/>
<path d="M2481 4751 c1 -28 3 -30 6 -11 3 14 9 30 14 36 5 7 3 11 -6 11 -11 0
-15 -11 -14 -36z"/>
<path d="M2072 4631 c-15 -47 -15 -62 -1 -38 5 9 15 17 21 17 6 0 17 -8 25
-17 13 -16 13 -16 7 7 -22 81 -35 89 -52 31z m28 4 c0 -8 -4 -15 -10 -15 -5 0
-7 7 -4 15 4 8 8 15 10 15 2 0 4 -7 4 -15z"/>
<path d="M2143 4625 c0 -27 2 -38 4 -22 2 15 2 37 0 50 -2 12 -4 0 -4 -28z"/>
<path d="M2173 4625 c0 -27 2 -38 4 -22 2 15 2 37 0 50 -2 12 -4 0 -4 -28z"/>
<path d="M2530 4660 c0 -5 -7 -10 -15 -10 -18 0 -34 -28 -28 -51 3 -12 14 -19
29 -19 22 0 24 4 24 45 0 25 -2 45 -5 45 -3 0 -5 -4 -5 -10z m-3 -54 c-4 -9
-11 -16 -17 -16 -11 0 -14 33 -3 44 11 10 26 -11 20 -28z"/>
<path d="M2389 4655 c-7 -6 2 -75 10 -75 3 0 6 16 5 35 -1 35 -6 49 -15 40z"/>
<path d="M2200 4635 c-16 -19 -3 -55 20 -55 21 0 37 40 25 59 -9 15 -30 14
-45 -4z m37 -11 c8 -20 -13 -42 -27 -28 -12 12 -3 44 11 44 5 0 12 -7 16 -16z"/>
<path d="M2267 4644 c-4 -4 -7 -18 -7 -31 0 -27 26 -41 43 -23 9 10 7 11 -10
5 -18 -5 -23 -2 -23 13 0 26 11 34 28 19 13 -10 14 -9 10 3 -5 17 -30 25 -41
14z"/>
<path d="M2324 4639 c-5 -9 -2 -10 9 -6 9 3 19 2 22 -2 2 -5 -4 -11 -15 -14
-32 -8 -25 -37 9 -37 27 0 28 2 22 32 -7 34 -33 49 -47 27z m31 -39 c-3 -5
-10 -10 -16 -10 -5 0 -9 5 -9 10 0 6 7 10 16 10 8 0 12 -4 9 -10z"/>
<path d="M2427 4644 c-4 -4 -7 -18 -7 -31 0 -26 26 -41 42 -25 8 8 5 9 -11 5
-12 -3 -21 -1 -21 6 0 6 9 11 21 11 14 0 19 5 17 17 -3 19 -29 29 -41 17z m28
-14 c3 -5 -1 -10 -10 -10 -9 0 -13 5 -10 10 3 6 8 10 10 10 2 0 7 -4 10 -10z"/>
<path d="M1550 4835 c0 -25 5 -45 10 -45 6 0 10 20 10 45 0 25 -4 45 -10 45
-5 0 -10 -20 -10 -45z"/>
<path d="M1590 4835 c0 -44 0 -45 33 -44 30 2 30 2 5 6 -16 2 -28 10 -28 18 0
8 12 16 28 18 l27 4 -27 2 c-17 0 -28 7 -28 15 0 8 12 17 28 19 25 4 25 4 -5
6 -33 1 -33 0 -33 -44z"/>
<path d="M1672 4868 c-24 -24 -11 -78 19 -78 34 0 37 76 3 87 -5 2 -15 -2 -22
-9z m35 -52 c-4 -9 -11 -16 -16 -16 -17 0 -23 40 -10 57 12 13 14 13 22 -5 5
-12 7 -28 4 -36z"/>
<path d="M1737 4873 c-13 -13 -7 -25 7 -14 11 9 16 9 22 0 4 -8 -1 -18 -14
-27 -31 -20 -28 -42 6 -41 l27 1 -25 7 -25 7 23 15 c26 16 29 44 6 53 -19 7
-19 7 -27 -1z"/>
<path d="M1807 4873 c-5 -9 -10 -50 -8 -71 1 -8 10 -12 24 -10 37 5 33 87 -5
88 -4 0 -9 -3 -11 -7z m27 -24 c-3 -5 -10 -7 -15 -3 -5 3 -7 10 -3 15 3 5 10
7 15 3 5 -3 7 -10 3 -15z m6 -34 c0 -8 -7 -15 -15 -15 -8 0 -15 7 -15 15 0 8
7 15 15 15 8 0 15 -7 15 -15z"/>
<path d="M1555 4235 c0 -275 1 -386 2 -247 2 139 2 364 0 500 -1 136 -2 22 -2
-253z"/>
<path d="M1900 3635 l0 -405 405 0 405 0 0 405 0 405 -405 0 -405 0 0 -405z
m800 0 l0 -395 -395 0 -395 0 0 395 0 395 395 0 395 0 0 -395z"/>
<path d="M2000 3705 c0 -28 4 -44 10 -40 6 3 10 13 10 21 0 22 30 16 40 -8 7
-18 8 -14 7 22 -2 43 -3 45 -34 48 -33 3 -33 3 -33 -43z m53 20 c1 -5 -6 -11
-15 -13 -11 -2 -18 3 -18 13 0 17 30 18 33 0z"/>
<path d="M2163 3705 c0 -27 2 -38 4 -22 2 15 2 37 0 50 -2 12 -4 0 -4 -28z"/>
<path d="M2478 3738 c-2 -7 -1 -29 3 -48 6 -35 6 -35 8 -5 2 17 4 38 6 48 4
19 -11 24 -17 5z"/>
<path d="M2091 3711 c-6 -11 -8 -27 -5 -35 7 -17 39 -22 48 -7 4 5 -3 7 -14 4
-11 -3 -20 0 -20 6 0 6 9 11 21 11 14 0 19 5 17 17 -5 25 -35 28 -47 4z m34
-1 c3 -5 -1 -10 -10 -10 -9 0 -13 5 -10 10 3 6 8 10 10 10 2 0 7 -4 10 -10z"/>
<path d="M2187 3724 c-4 -4 -7 -18 -7 -31 0 -26 26 -41 42 -25 8 8 5 9 -11 5
-12 -3 -21 -1 -21 6 0 6 9 11 21 11 14 0 19 5 17 17 -3 19 -29 29 -41 17z m28
-14 c3 -5 -1 -10 -10 -10 -9 0 -13 5 -10 10 3 6 8 10 10 10 2 0 7 -4 10 -10z"/>
<path d="M2255 3721 c-3 -7 0 -8 9 -5 9 3 16 1 16 -5 0 -6 -7 -11 -15 -11 -8
0 -15 -9 -15 -20 0 -15 7 -20 26 -20 23 0 25 3 22 32 -3 33 -29 50 -43 29z
m30 -41 c-3 -5 -10 -10 -16 -10 -5 0 -9 5 -9 10 0 6 7 10 16 10 8 0 12 -4 9
-10z"/>
<path d="M2316 3714 c-4 -11 1 -18 14 -21 11 -3 20 -10 20 -15 0 -5 -10 -6
-21 -3 -15 5 -19 4 -15 -4 11 -17 46 -13 46 4 0 9 -7 18 -15 21 -8 4 -15 11
-15 16 0 6 7 7 16 4 8 -3 12 -2 9 4 -9 15 -32 12 -39 -6z"/>
<path d="M2380 3715 c-26 -32 15 -75 44 -45 8 9 6 11 -11 5 -14 -4 -23 -2 -23
4 0 6 9 11 21 11 15 0 19 4 15 16 -3 9 -6 18 -6 20 0 10 -29 3 -40 -11z m35
-5 c3 -5 -1 -10 -9 -10 -9 0 -16 5 -16 10 0 6 4 10 9 10 6 0 13 -4 16 -10z"/>
<path d="M2512 3717 c-18 -21 -3 -59 22 -55 16 2 21 10 21 33 0 33 -24 45 -43
22z m35 -31 c-4 -9 -11 -16 -17 -16 -11 0 -14 33 -3 44 11 10 26 -11 20 -28z"/>
<path d="M2581 3693 c1 -28 3 -31 6 -13 3 14 10 31 15 38 8 9 6 12 -6 12 -12
0 -16 -9 -15 -37z"/>
<path d="M2132 3603 c12 -3 18 -17 21 -46 l4 -42 1 42 c2 30 7 43 20 46 9 3
-1 5 -23 5 -22 0 -32 -2 -23 -5z"/>
<path d="M2459 3595 c-7 -6 2 -75 10 -75 3 0 6 16 5 35 -1 35 -6 49 -15 40z"/>
<path d="M2201 3553 c1 -28 3 -31 6 -13 3 14 10 31 15 38 8 9 6 12 -6 12 -12
0 -16 -9 -15 -37z"/>
<path d="M2245 3580 c-3 -6 1 -7 9 -4 9 3 16 2 16 -4 0 -5 -9 -12 -21 -15 -29
-8 -19 -31 16 -35 22 -3 27 0 21 13 -3 9 -6 25 -6 36 0 20 -24 26 -35 9z m25
-40 c0 -5 -4 -10 -10 -10 -5 0 -10 5 -10 10 0 6 5 10 10 10 6 0 10 -4 10 -10z"/>
<path d="M2301 3550 c1 -34 1 -34 8 -6 9 42 29 44 34 4 l4 -33 1 37 c2 35 0
38 -23 36 -22 -2 -25 -7 -24 -38z"/>
<path d="M2377 3583 c-13 -12 -7 -33 8 -33 8 0 15 -5 15 -11 0 -6 -7 -9 -15
-5 -8 3 -15 1 -15 -4 0 -6 9 -10 20 -10 13 0 20 7 20 20 0 11 -7 20 -15 20 -8
0 -15 5 -15 11 0 6 7 8 16 5 8 -3 12 -2 9 4 -7 12 -19 13 -28 3z"/>
<path d="M2433 3555 c0 -22 2 -30 4 -17 2 12 2 30 0 40 -3 9 -5 -1 -4 -23z"/>
<path d="M1550 3635 c0 -25 5 -45 10 -45 6 0 10 20 10 45 0 25 -4 45 -10 45
-5 0 -10 -20 -10 -45z"/>
<path d="M1590 3635 c0 -44 0 -45 33 -44 30 2 30 2 5 6 -16 2 -28 10 -28 18 0
8 12 16 28 18 l27 4 -27 2 c-17 0 -28 7 -28 15 0 8 12 17 28 19 25 4 25 4 -5
6 -33 1 -33 0 -33 -44z"/>
<path d="M1672 3668 c-24 -24 -11 -78 19 -78 34 0 37 76 3 87 -5 2 -15 -2 -22
-9z m35 -52 c-4 -9 -11 -16 -16 -16 -17 0 -23 40 -10 57 12 13 14 13 22 -5 5
-12 7 -28 4 -36z"/>
<path d="M1737 3673 c-13 -13 -7 -25 7 -14 11 9 16 9 22 0 4 -8 -1 -18 -14
-27 -31 -20 -28 -42 6 -41 l27 1 -25 7 -25 7 23 15 c26 16 29 44 6 53 -19 7
-19 7 -27 -1z"/>
<path d="M1807 3673 c-5 -9 -10 -50 -8 -71 1 -8 10 -12 24 -10 37 5 33 87 -5
88 -4 0 -9 -3 -11 -7z m27 -24 c-3 -5 -10 -7 -15 -3 -5 3 -7 10 -3 15 3 5 10
7 15 3 5 -3 7 -10 3 -15z m6 -34 c0 -8 -7 -15 -15 -15 -8 0 -15 7 -15 15 0 8
7 15 15 15 8 0 15 -7 15 -15z"/>
<path d="M1555 2445 c0 -600 1 -846 2 -548 2 298 2 788 0 1090 -1 301 -2 58
-2 -542z"/>
<path d="M1900 2640 l0 -201 -30 16 c-37 19 -51 19 -44 0 5 -12 -14 -15 -123
-18 l-128 -3 129 -2 c109 -2 127 -4 122 -17 -7 -19 7 -19 44 0 l30 16 0 -201
0 -200 200 0 200 0 0 -151 c0 -130 -2 -150 -15 -145 -19 7 -19 -7 0 -44 l16
-30 -201 0 -200 0 0 -405 0 -405 405 0 405 0 0 405 0 405 -200 0 -201 0 16 30
c19 37 19 51 0 44 -13 -5 -15 15 -15 145 l0 151 200 0 200 0 0 405 0 405 -405
0 -405 0 0 -200z m800 -205 l0 -395 -395 0 -395 0 0 395 0 395 395 0 395 0 0
-395z m0 -1180 l0 -395 -395 0 -395 0 0 395 0 395 395 0 395 0 0 -395z"/>
<path d="M1984 2607 c-3 -9 -4 -28 -2 -44 2 -22 9 -29 29 -31 18 -2 29 3 33
14 5 14 4 15 -9 4 -21 -18 -45 -5 -45 25 0 31 24 43 47 24 14 -12 16 -12 11 1
-6 20 -56 26 -64 7z"/>
<path d="M2333 2575 c0 -27 2 -38 4 -22 2 15 2 37 0 50 -2 12 -4 0 -4 -28z"/>
<path d="M2353 2575 c0 -27 2 -38 4 -22 2 15 2 37 0 50 -2 12 -4 0 -4 -28z"/>
<path d="M2449 2605 c-7 -6 2 -75 10 -75 3 0 6 16 5 35 -1 35 -6 49 -15 40z"/>
<path d="M2075 2590 c-3 -6 1 -7 9 -4 9 3 16 2 16 -4 0 -5 -9 -12 -21 -15 -29
-8 -19 -31 16 -35 22 -3 27 0 21 13 -3 9 -6 25 -6 36 0 20 -24 26 -35 9z m25
-40 c0 -5 -4 -10 -10 -10 -5 0 -10 5 -10 10 0 6 5 10 10 10 6 0 10 -4 10 -10z"/>
<path d="M2131 2561 c1 -36 1 -36 8 -6 3 17 11 30 16 30 5 0 13 -13 17 -30 6
-29 6 -29 5 5 -2 29 -6 35 -24 36 -20 1 -23 -3 -22 -35z"/>
<path d="M2202 2587 c-16 -19 -3 -57 19 -57 11 0 19 4 19 10 0 5 -7 7 -15 4
-11 -5 -15 1 -15 21 0 20 4 26 15 21 8 -3 15 -1 15 4 0 14 -26 12 -38 -3z"/>
<path d="M2261 2581 c-6 -11 -8 -27 -5 -35 7 -17 39 -22 48 -7 4 5 -3 7 -14 4
-11 -3 -20 0 -20 6 0 6 9 11 21 11 14 0 19 5 17 17 -5 25 -35 28 -47 4z m34
-1 c3 -5 -1 -10 -10 -10 -9 0 -13 5 -10 10 3 6 8 10 10 10 2 0 7 -4 10 -10z"/>
<path d="M2385 2591 c-3 -7 0 -8 9 -5 9 3 16 1 16 -5 0 -6 -7 -11 -15 -11 -8
0 -15 -9 -15 -20 0 -15 7 -20 26 -20 23 0 25 3 22 32 -3 33 -29 50 -43 29z
m30 -41 c-3 -5 -10 -10 -16 -10 -5 0 -9 5 -9 10 0 6 7 10 16 10 8 0 12 -4 9
-10z"/>
<path d="M2483 2565 c0 -22 2 -30 4 -17 2 12 2 30 0 40 -3 9 -5 -1 -4 -23z"/>
<path d="M2510 2585 c-16 -19 -3 -55 20 -55 21 0 37 40 25 59 -9 15 -30 14
-45 -4z m37 -11 c8 -20 -13 -42 -27 -28 -12 12 -3 44 11 44 5 0 12 -7 16 -16z"/>
<path d="M2571 2561 c1 -36 1 -36 8 -6 3 17 11 30 16 30 5 0 13 -13 17 -30 6
-29 6 -29 5 5 -2 29 -6 35 -24 36 -20 1 -23 -3 -22 -35z"/>
<path d="M2091 2433 c1 -27 4 -38 6 -25 6 29 43 31 43 2 0 -11 4 -20 8 -20 8
0 8 14 3 83 -1 4 -14 7 -31 7 -29 0 -30 -1 -29 -47z m49 22 c0 -8 -9 -15 -20
-15 -11 0 -20 7 -20 15 0 8 9 15 20 15 11 0 20 -7 20 -15z"/>
<path d="M2499 2465 c-7 -6 2 -75 10 -75 3 0 6 16 5 35 -1 35 -6 49 -15 40z"/>
<path d="M2177 2454 c-4 -4 -7 -18 -7 -31 0 -26 26 -41 42 -25 8 8 5 9 -11 5
-12 -3 -21 -1 -21 6 0 6 9 11 21 11 14 0 19 5 17 17 -3 19 -29 29 -41 17z m28
-14 c3 -5 -1 -10 -10 -10 -9 0 -13 5 -10 10 3 6 8 10 10 10 2 0 7 -4 10 -10z"/>
<path d="M2240 2440 c-13 -24 -3 -50 20 -50 10 0 21 -6 23 -12 3 -7 6 7 6 32
1 39 -2 46 -19 47 -11 1 -24 -7 -30 -17z m37 -24 c-4 -9 -11 -16 -17 -16 -11
0 -14 33 -3 44 11 10 26 -11 20 -28z"/>
<path d="M2377 2454 c-4 -4 -7 -18 -7 -31 0 -26 26 -41 42 -25 8 8 5 9 -11 5
-12 -3 -21 -1 -21 6 0 6 9 11 21 11 14 0 19 5 17 17 -3 19 -29 29 -41 17z m28
-14 c3 -5 -1 -10 -10 -10 -9 0 -13 5 -10 10 3 6 8 10 10 10 2 0 7 -4 10 -10z"/>
<path d="M2447 2453 c-13 -12 -7 -33 8 -33 8 0 15 -5 15 -11 0 -6 -7 -9 -15
-5 -8 3 -15 1 -15 -4 0 -6 9 -10 20 -10 13 0 20 7 20 20 0 11 -7 20 -15 20 -8
0 -15 5 -15 11 0 6 7 8 16 5 8 -3 12 -2 9 4 -7 12 -19 13 -28 3z"/>
<path d="M2300 2436 c0 -30 13 -46 36 -46 20 0 24 5 24 30 0 17 -4 30 -10 30
-5 0 -10 -11 -10 -25 0 -14 -4 -25 -10 -25 -5 0 -10 11 -10 25 0 14 -4 25 -10
25 -5 0 -10 -6 -10 -14z"/>
<path d="M2510 2330 c0 -5 -7 -10 -15 -10 -18 0 -34 -28 -28 -51 3 -12 14 -19
29 -19 22 0 24 4 24 45 0 25 -2 45 -5 45 -3 0 -5 -4 -5 -10z m-3 -54 c-4 -9
-11 -16 -17 -16 -11 0 -14 33 -3 44 11 10 26 -11 20 -28z"/>
<path d="M2081 2281 c1 -28 3 -30 6 -11 3 14 9 30 14 36 5 7 3 11 -6 11 -11 0
-15 -11 -14 -36z"/>
<path d="M2127 2314 c-4 -4 -7 -18 -7 -31 0 -26 26 -41 42 -25 8 8 5 9 -11 5
-12 -3 -21 -1 -21 6 0 6 9 11 21 11 14 0 19 5 17 17 -3 19 -29 29 -41 17z m28
-14 c3 -5 -1 -10 -10 -10 -9 0 -13 5 -10 10 3 6 8 10 10 10 2 0 7 -4 10 -10z"/>
<path d="M2192 2307 c-16 -19 -3 -57 19 -57 11 0 19 4 19 10 0 5 -7 7 -15 4
-11 -5 -15 1 -15 21 0 20 4 26 15 21 8 -3 15 -1 15 4 0 14 -26 12 -38 -3z"/>
<path d="M2251 2301 c-6 -11 -8 -27 -5 -35 7 -17 39 -22 48 -7 4 5 -3 7 -14 4
-11 -3 -20 0 -20 6 0 6 9 11 21 11 14 0 19 5 17 17 -5 25 -35 28 -47 4z m34
-1 c3 -5 -1 -10 -10 -10 -9 0 -13 5 -10 10 3 6 8 10 10 10 2 0 7 -4 10 -10z"/>
<path d="M2341 2310 c-1 -24 11 -60 19 -60 9 0 32 61 26 68 -3 2 -8 -9 -12
-24 l-7 -29 -13 30 c-7 17 -13 23 -13 15z"/>
<path d="M2407 2314 c-4 -4 -7 -18 -7 -31 0 -26 26 -41 42 -25 8 8 5 9 -11 5
-12 -3 -21 -1 -21 6 0 6 9 11 21 11 14 0 19 5 17 17 -3 19 -29 29 -41 17z m28
-14 c3 -5 -1 -10 -10 -10 -9 0 -13 5 -10 10 3 6 8 10 10 10 2 0 7 -4 10 -10z"/>
<path d="M2310 2280 c0 -16 5 -30 10 -30 6 0 10 14 10 30 0 17 -4 30 -10 30
-5 0 -10 -13 -10 -30z"/>
<path d="M1984 1357 c-3 -9 -4 -28 -2 -44 2 -22 9 -29 29 -31 18 -2 29 3 33
14 5 14 4 15 -9 4 -21 -18 -45 -5 -45 25 0 31 24 43 47 24 14 -12 16 -12 11 1
-6 20 -56 26 -64 7z"/>
<path d="M2333 1325 c0 -27 2 -38 4 -22 2 15 2 37 0 50 -2 12 -4 0 -4 -28z"/>
<path d="M2353 1325 c0 -27 2 -38 4 -22 2 15 2 37 0 50 -2 12 -4 0 -4 -28z"/>
<path d="M2449 1355 c-7 -6 2 -75 10 -75 3 0 6 16 5 35 -1 35 -6 49 -15 40z"/>
<path d="M2075 1340 c-3 -6 1 -7 9 -4 9 3 16 2 16 -4 0 -5 -9 -12 -21 -15 -29
-8 -19 -31 16 -35 22 -3 27 0 21 13 -3 9 -6 25 -6 36 0 20 -24 26 -35 9z m25
-40 c0 -5 -4 -10 -10 -10 -5 0 -10 5 -10 10 0 6 5 10 10 10 6 0 10 -4 10 -10z"/>
<path d="M2131 1311 c1 -36 1 -36 8 -6 3 17 11 30 16 30 5 0 13 -13 17 -30 6
-29 6 -29 5 5 -2 29 -6 35 -24 36 -20 1 -23 -3 -22 -35z"/>
<path d="M2202 1337 c-16 -19 -3 -57 19 -57 11 0 19 4 19 10 0 5 -7 7 -15 4
-11 -5 -15 1 -15 21 0 20 4 26 15 21 8 -3 15 -1 15 4 0 14 -26 12 -38 -3z"/>
<path d="M2261 1331 c-6 -11 -8 -27 -5 -35 7 -17 39 -22 48 -7 4 5 -3 7 -14 4
-11 -3 -20 0 -20 6 0 6 9 11 21 11 14 0 19 5 17 17 -5 25 -35 28 -47 4z m34
-1 c3 -5 -1 -10 -10 -10 -9 0 -13 5 -10 10 3 6 8 10 10 10 2 0 7 -4 10 -10z"/>
<path d="M2385 1341 c-3 -7 0 -8 9 -5 9 3 16 1 16 -5 0 -6 -7 -11 -15 -11 -8
0 -15 -9 -15 -20 0 -15 7 -20 26 -20 23 0 25 3 22 32 -3 33 -29 50 -43 29z
m30 -41 c-3 -5 -10 -10 -16 -10 -5 0 -9 5 -9 10 0 6 7 10 16 10 8 0 12 -4 9
-10z"/>
<path d="M2483 1315 c0 -22 2 -30 4 -17 2 12 2 30 0 40 -3 9 -5 -1 -4 -23z"/>
<path d="M2510 1335 c-16 -19 -3 -55 20 -55 21 0 37 40 25 59 -9 15 -30 14
-45 -4z m37 -11 c8 -20 -13 -42 -27 -28 -12 12 -3 44 11 44 5 0 12 -7 16 -16z"/>
<path d="M2571 1311 c1 -36 1 -36 8 -6 3 17 11 30 16 30 5 0 13 -13 17 -30 6
-29 6 -29 5 5 -2 29 -6 35 -24 36 -20 1 -23 -3 -22 -35z"/>
<path d="M2080 1185 c0 -40 2 -45 23 -45 29 0 47 18 47 45 0 27 -18 45 -47 45
-21 0 -23 -5 -23 -45z m53 13 c8 -12 7 -21 -2 -32 -23 -28 -41 -19 -41 20 0
28 4 35 16 32 9 -2 22 -10 27 -20z"/>
<path d="M2170 1195 c-26 -32 15 -75 44 -45 8 9 6 11 -11 5 -14 -4 -23 -2 -23
4 0 6 9 11 21 11 15 0 19 4 15 16 -3 9 -6 18 -6 20 0 10 -29 3 -40 -11z m35
-5 c3 -5 -1 -10 -9 -10 -9 0 -16 5 -16 10 0 6 4 10 9 10 6 0 13 -4 16 -10z"/>
<path d="M2237 1204 c-4 -4 -7 -18 -7 -31 0 -27 26 -41 43 -23 9 10 7 11 -10
5 -18 -5 -23 -2 -23 13 0 26 11 34 28 19 13 -10 14 -9 10 3 -5 17 -30 25 -41
14z"/>
<path d="M2293 1175 c0 -22 2 -30 4 -17 2 12 2 30 0 40 -3 9 -5 -1 -4 -23z"/>
<path d="M2327 1203 c-13 -12 -7 -33 8 -33 8 0 15 -5 15 -11 0 -6 -7 -9 -15
-5 -8 3 -15 1 -15 -4 0 -6 9 -10 20 -10 13 0 20 7 20 20 0 11 -7 20 -15 20 -8
0 -15 5 -15 11 0 6 7 8 16 5 8 -3 12 -2 9 4 -7 12 -19 13 -28 3z"/>
<path d="M2383 1175 c0 -22 2 -30 4 -17 2 12 2 30 0 40 -3 9 -5 -1 -4 -23z"/>
<path d="M2410 1195 c-16 -19 -3 -55 20 -55 21 0 37 40 25 59 -9 15 -30 14
-45 -4z m37 -11 c8 -20 -13 -42 -27 -28 -12 12 -3 44 11 44 5 0 12 -7 16 -16z"/>
<path d="M2471 1171 c1 -36 1 -36 8 -6 3 17 11 30 16 30 5 0 13 -13 17 -30 6
-29 6 -29 5 5 -2 29 -6 35 -24 36 -20 1 -23 -3 -22 -35z"/>
<path d="M1230 2435 c0 -25 5 -45 10 -45 6 0 10 20 10 45 0 25 -4 45 -10 45
-5 0 -10 -20 -10 -45z"/>
<path d="M1270 2435 c0 -44 0 -45 33 -44 30 2 30 2 5 6 -16 2 -28 10 -28 18 0
8 12 16 28 18 l27 4 -27 2 c-17 0 -28 7 -28 15 0 8 12 17 28 19 25 4 25 4 -5
6 -33 1 -33 0 -33 -44z"/>
<path d="M1352 2468 c-24 -24 -11 -78 19 -78 34 0 37 76 3 87 -5 2 -15 -2 -22
-9z m35 -52 c-4 -9 -11 -16 -16 -16 -17 0 -23 40 -10 57 12 13 14 13 22 -5 5
-12 7 -28 4 -36z"/>
<path d="M1493 2453 c-28 -38 -28 -43 -4 -43 11 0 21 -5 23 -12 8 -23 14 16 8
52 l-5 35 -22 -32z m13 -30 c-10 -10 -19 5 -10 18 6 11 8 11 12 0 2 -7 1 -15
-2 -18z"/>
<path d="M1429 2465 c-8 -8 3 -75 12 -75 5 0 9 18 9 40 0 36 -8 49 -21 35z"/>
<path d="M578 1653 c111 -2 293 -2 405 0 111 1 20 2 -203 2 -223 0 -314 -1
-202 -2z"/>
<path d="M490 1396 c0 -42 2 -46 25 -46 18 0 29 8 37 26 15 33 1 58 -36 62
-25 3 -26 1 -26 -42z m49 20 c9 -11 10 -20 1 -35 -18 -34 -40 -26 -40 14 0 37
18 47 39 21z"/>
<path d="M703 1395 c0 -27 2 -38 4 -22 2 15 2 37 0 50 -2 12 -4 0 -4 -28z"/>
<path d="M899 1425 c-7 -6 2 -75 10 -75 3 0 6 16 5 35 -1 35 -6 49 -15 40z"/>
<path d="M577 1414 c-4 -4 -7 -18 -7 -31 0 -26 26 -41 42 -25 8 8 5 9 -11 5
-12 -3 -21 -1 -21 6 0 6 9 11 21 11 14 0 19 5 17 17 -3 19 -29 29 -41 17z m28
-14 c3 -5 -1 -10 -10 -10 -9 0 -13 5 -10 10 3 6 8 10 10 10 2 0 7 -4 10 -10z"/>
<path d="M642 1407 c-16 -19 -3 -57 19 -57 11 0 19 4 19 10 0 5 -7 7 -15 4
-11 -5 -15 1 -15 21 0 20 4 26 15 21 8 -3 15 -1 15 4 0 14 -26 12 -38 -3z"/>
<path d="M735 1410 c-3 -6 1 -7 9 -4 9 3 16 2 16 -4 0 -5 -9 -12 -21 -15 -29
-8 -19 -31 16 -35 22 -3 27 0 21 13 -3 9 -6 25 -6 36 0 20 -24 26 -35 9z m25
-40 c0 -5 -4 -10 -10 -10 -5 0 -10 5 -10 10 0 6 5 10 10 10 6 0 10 -4 10 -10z"/>
<path d="M791 1381 c1 -28 3 -30 6 -11 3 14 9 30 14 36 5 7 3 11 -6 11 -11 0
-15 -11 -14 -36z"/>
<path d="M834 1409 c-5 -9 -2 -10 9 -6 9 3 19 2 22 -2 2 -5 -4 -11 -15 -14
-32 -8 -25 -37 9 -37 27 0 28 2 22 32 -7 34 -33 49 -47 27z m31 -39 c-3 -5
-10 -10 -16 -10 -5 0 -9 5 -9 10 0 6 7 10 16 10 8 0 12 -4 9 -10z"/>
<path d="M933 1385 c0 -22 2 -30 4 -17 2 12 2 30 0 40 -3 9 -5 -1 -4 -23z"/>
<path d="M962 1407 c-18 -21 -3 -59 22 -55 16 2 21 10 21 33 0 33 -24 45 -43
22z m35 -31 c-4 -9 -11 -16 -17 -16 -11 0 -14 33 -3 44 11 10 26 -11 20 -28z"/>
<path d="M1027 1413 c-11 -10 -8 -63 3 -63 6 0 10 14 10 30 0 40 17 38 29 -2
7 -24 9 -27 10 -11 1 33 -9 53 -28 53 -10 0 -21 -3 -24 -7z"/>
<path d="M464 1287 c-3 -9 -4 -28 -2 -44 2 -22 9 -29 29 -31 18 -2 29 3 33 14
5 14 4 15 -9 4 -21 -18 -45 -5 -45 25 0 31 24 43 47 24 14 -12 16 -12 11 1 -6
20 -56 26 -64 7z"/>
<path d="M813 1255 c0 -27 2 -38 4 -22 2 15 2 37 0 50 -2 12 -4 0 -4 -28z"/>
<path d="M833 1255 c0 -27 2 -38 4 -22 2 15 2 37 0 50 -2 12 -4 0 -4 -28z"/>
<path d="M1550 1255 c0 -25 5 -45 10 -45 6 0 10 20 10 45 0 25 -4 45 -10 45
-5 0 -10 -20 -10 -45z"/>
<path d="M1590 1255 c0 -44 0 -45 33 -44 30 2 30 2 5 6 -16 2 -28 10 -28 18 0
8 12 16 28 18 l27 4 -27 2 c-17 0 -28 7 -28 15 0 8 12 17 28 19 25 4 25 4 -5
6 -33 1 -33 0 -33 -44z"/>
<path d="M1672 1288 c-24 -24 -11 -78 19 -78 34 0 37 76 3 87 -5 2 -15 -2 -22
-9z m35 -52 c-4 -9 -11 -16 -16 -16 -17 0 -23 40 -10 57 12 13 14 13 22 -5 5
-12 7 -28 4 -36z"/>
<path d="M1742 1291 c-8 -5 -12 -22 -10 -42 2 -26 8 -34 23 -34 17 0 20 7 20
39 0 41 -10 52 -33 37z m26 -42 c-1 -13 -7 -23 -13 -22 -13 3 -18 30 -11 50
10 24 29 1 24 -28z"/>
<path d="M1807 1293 c-14 -14 -6 -45 13 -50 11 -3 17 -10 14 -15 -3 -5 -12 -7
-20 -4 -8 3 -14 1 -14 -4 0 -16 37 -11 44 6 11 29 6 62 -10 68 -19 7 -19 7
-27 -1z m25 -35 c-15 -15 -26 -4 -18 18 5 13 9 15 18 6 9 -9 9 -15 0 -24z"/>
<path d="M929 1285 c-7 -6 2 -75 10 -75 3 0 6 16 5 35 -1 35 -6 49 -15 40z"/>
<path d="M1218 1274 c-16 -8 -28 -17 -28 -19 0 -7 57 -35 71 -35 8 0 8 4 -1
15 -10 12 5 15 117 18 l128 3 -129 2 c-113 2 -127 4 -116 17 17 20 -5 20 -42
-1z"/>
<path d="M555 1270 c-3 -6 1 -7 9 -4 9 3 16 2 16 -4 0 -5 -9 -12 -21 -15 -29
-8 -19 -31 16 -35 22 -3 27 0 21 13 -3 9 -6 25 -6 36 0 20 -24 26 -35 9z m25
-40 c0 -5 -4 -10 -10 -10 -5 0 -10 5 -10 10 0 6 5 10 10 10 6 0 10 -4 10 -10z"/>
<path d="M611 1241 c1 -36 1 -36 8 -6 3 17 11 30 16 30 5 0 13 -13 17 -30 6
-29 6 -29 5 5 -2 29 -6 35 -24 36 -20 1 -23 -3 -22 -35z"/>
<path d="M682 1267 c-16 -19 -3 -57 19 -57 11 0 19 4 19 10 0 5 -7 7 -15 4
-11 -5 -15 1 -15 21 0 20 4 26 15 21 8 -3 15 -1 15 4 0 14 -26 12 -38 -3z"/>
<path d="M741 1261 c-6 -11 -8 -27 -5 -35 7 -17 39 -22 48 -7 4 5 -3 7 -14 4
-11 -3 -20 0 -20 6 0 6 9 11 21 11 14 0 19 5 17 17 -5 25 -35 28 -47 4z m34
-1 c3 -5 -1 -10 -10 -10 -9 0 -13 5 -10 10 3 6 8 10 10 10 2 0 7 -4 10 -10z"/>
<path d="M865 1271 c-3 -7 0 -8 9 -5 9 3 16 1 16 -5 0 -6 -7 -11 -15 -11 -8 0
-15 -9 -15 -20 0 -15 7 -20 26 -20 23 0 25 3 22 32 -3 33 -29 50 -43 29z m30
-41 c-3 -5 -10 -10 -16 -10 -5 0 -9 5 -9 10 0 6 7 10 16 10 8 0 12 -4 9 -10z"/>
<path d="M963 1245 c0 -22 2 -30 4 -17 2 12 2 30 0 40 -3 9 -5 -1 -4 -23z"/>
<path d="M990 1265 c-16 -19 -3 -55 20 -55 21 0 37 40 25 59 -9 15 -30 14 -45
-4z m37 -11 c8 -20 -13 -42 -27 -28 -12 12 -3 44 11 44 5 0 12 -7 16 -16z"/>
<path d="M1051 1241 c1 -36 1 -36 8 -6 3 17 11 30 16 30 5 0 13 -13 17 -30 6
-29 6 -29 5 5 -2 29 -6 35 -24 36 -20 1 -23 -3 -22 -35z"/>
<path d="M571 1113 c1 -27 4 -38 6 -25 6 29 43 31 43 2 0 -11 4 -20 8 -20 8 0
8 14 3 83 -1 4 -14 7 -31 7 -29 0 -30 -1 -29 -47z m49 22 c0 -8 -9 -15 -20
-15 -11 0 -20 7 -20 15 0 8 9 15 20 15 11 0 20 -7 20 -15z"/>
<path d="M979 1145 c-7 -6 2 -75 10 -75 3 0 6 16 5 35 -1 35 -6 49 -15 40z"/>
<path d="M657 1134 c-4 -4 -7 -18 -7 -31 0 -26 26 -41 42 -25 8 8 5 9 -11 5
-12 -3 -21 -1 -21 6 0 6 9 11 21 11 14 0 19 5 17 17 -3 19 -29 29 -41 17z m28
-14 c3 -5 -1 -10 -10 -10 -9 0 -13 5 -10 10 3 6 8 10 10 10 2 0 7 -4 10 -10z"/>
<path d="M720 1120 c-13 -24 -3 -50 20 -50 10 0 21 -6 23 -12 3 -7 6 7 6 32 1
39 -2 46 -19 47 -11 1 -24 -7 -30 -17z m37 -24 c-4 -9 -11 -16 -17 -16 -11 0
-14 33 -3 44 11 10 26 -11 20 -28z"/>
<path d="M857 1134 c-4 -4 -7 -18 -7 -31 0 -26 26 -41 42 -25 8 8 5 9 -11 5
-12 -3 -21 -1 -21 6 0 6 9 11 21 11 14 0 19 5 17 17 -3 19 -29 29 -41 17z m28
-14 c3 -5 -1 -10 -10 -10 -9 0 -13 5 -10 10 3 6 8 10 10 10 2 0 7 -4 10 -10z"/>
<path d="M927 1133 c-13 -12 -7 -33 8 -33 8 0 15 -5 15 -11 0 -6 -7 -9 -15 -5
-8 3 -15 1 -15 -4 0 -6 9 -10 20 -10 13 0 20 7 20 20 0 11 -7 20 -15 20 -8 0
-15 5 -15 11 0 6 7 8 16 5 8 -3 12 -2 9 4 -7 12 -19 13 -28 3z"/>
<path d="M780 1116 c0 -30 13 -46 36 -46 20 0 24 5 24 30 0 17 -4 30 -10 30
-5 0 -10 -11 -10 -25 0 -14 -4 -25 -10 -25 -5 0 -10 11 -10 25 0 14 -4 25 -10
25 -5 0 -10 -6 -10 -14z"/>
<path d="M578 853 c111 -2 293 -2 405 0 111 1 20 2 -203 2 -223 0 -314 -1
-202 -2z"/>
</g>
</svg>
